<?xml version="1.0" encoding="UTF-8"?>
<svg width="45px" height="37px" viewBox="0 0 45 37" version="1.1" xmlns="http://www.w3.org/2000/svg" xmlns:xlink="http://www.w3.org/1999/xlink">
    <!-- Generator: Sketch 51.1 (57501) - http://www.bohemiancoding.com/sketch -->
    <title>Group Copy 2</title>
    <desc>Created with Sketch.</desc>
    <defs></defs>
    <g id="1440" stroke="none" stroke-width="1" fill="none" fill-rule="evenodd">
        <g id="Group-Copy-2" fill="#F24841">
            <path d="M15.85754,20.8342449 L0.00214,20.8342449 C0.00214,21.6512128 0.00234,22.361138 0.00214,23.0710631 C0.00094,27.1262235 -0.00206,31.1811861 0.00254,35.2363465 C0.00294,35.4830791 0.06394,35.7298118 0.09374,35.9533947 L24.55074,35.9533947 L24.55074,28.4429882 L15.85754,28.4429882 L15.85754,20.8342449 Z" id="Fill-1"></path>
            <path d="M44.59444,29.1753112 C44.59444,27.2661508 44.60204,25.3567925 44.59164,23.4478299 C44.58424,22.0912952 44.02944,21.4963273 42.69504,21.4413219 C41.90024,21.408477 41.10284,21.4462684 40.30644,21.444092 C38.28144,21.4379583 36.25644,21.4349904 34.23164,21.4140171 C33.20864,21.4037283 32.18824,21.9597176 32.19924,23.4329904 C32.22784,27.2509155 32.20484,31.0694342 32.21284,34.8877551 C32.21584,36.299493 32.83604,36.8946588 34.30224,36.9094984 C36.16464,36.928493 38.02744,36.9441241 39.88984,36.9407604 C40.95084,36.9387818 42.01604,36.9466963 43.07124,36.8564717 C43.99184,36.7779209 44.48724,36.2051134 44.58044,35.2973273 C44.60704,35.0365465 44.59404,34.771215 44.59424,34.5080599 C44.59504,32.730477 44.59464,30.9528941 44.59444,29.1753112" id="Fill-3"></path>
            <path d="M19.29308,16.9923786 L16.66628,16.9923786 C16.80328,16.2054856 16.93008,15.4775551 17.08348,14.5970738 C17.83328,15.4096888 18.49748,16.1301005 19.29308,16.9923786 M35.98468,9.85157647 C35.99008,9.1084107 35.76528,8.44023422 35.07628,7.9426139 C33.99728,9.30864599 32.94008,10.6471754 31.87468,11.9959936 C29.96788,11.2189936 28.09768,10.8367262 26.36828,10.9778011 C25.74988,10.7504588 25.33948,10.5373626 24.90368,10.4516888 C23.82888,10.2403733 22.73708,10.114138 21.66348,9.89787594 C21.25728,9.8159615 20.81188,9.66123422 20.50708,9.39985989 C19.60648,8.62721283 18.76568,7.78610588 17.90488,6.96854439 C17.63248,6.71013797 17.37968,6.51326631 16.94168,6.65354973 C15.92548,6.97903102 14.99588,6.75168877 14.09428,6.19253369 C13.17628,5.6232877 12.60948,5.9238385 12.42208,6.98120749 C12.04328,9.11731444 11.64428,11.2500578 11.27888,13.3881433 C11.03508,14.8137316 10.85708,16.2502021 10.60868,17.6748011 C10.40208,18.8586032 11.17008,19.980277 12.47768,20.1168011 C13.29808,20.2024749 14.13288,20.1538011 14.96108,20.1688385 C15.70568,20.182293 16.45028,20.2004963 17.24148,20.2177102 C17.05628,21.2734963 16.89808,22.2093786 16.72668,23.1430845 C16.57248,23.9837957 16.37928,24.8181754 16.24768,25.6618545 C16.10648,26.5682556 16.66728,27.3654374 17.49828,27.5148225 C18.41968,27.6804321 19.19688,27.1501647 19.40228,26.1964749 C19.49228,25.7787904 19.54028,25.3527957 19.61588,24.9321433 C19.89948,23.3555872 20.16268,21.7750738 20.48168,20.2054428 C20.65908,19.3324802 20.77948,18.4779187 20.47868,17.6166299 C21.37868,16.7141861 21.38428,16.5424428 20.51408,15.5980524 C19.81848,14.843015 19.14448,14.0650257 18.40608,13.3529241 C17.74328,12.7136353 17.62648,11.9273358 17.65068,11.1000791 C17.66368,10.6556834 17.81088,10.2150471 17.92348,9.63986524 C18.46948,10.1139401 18.95688,10.5019455 19.40128,10.9330845 C19.85048,11.3687743 20.38208,11.5765283 20.98748,11.6738759 C22.19948,11.868769 23.40428,12.1119401 24.62048,12.2720096 C24.98608,12.3200898 25.45408,12.2654802 25.74308,12.0684107 C26.16728,11.7793358 26.59088,11.7128545 27.05848,11.7271005 C28.67208,11.7757743 30.22088,12.0887904 31.67908,12.8084107 C31.99168,12.9629401 32.36488,13.0715658 32.71068,13.0723572 C34.41188,13.078293 35.97208,11.5393305 35.98468,9.85157647" id="Fill-5"></path>
            <path d="M16.12208,6.04953957 C17.81588,6.04459305 19.18628,4.72466257 19.21208,3.07351283 C19.23908,1.34262513 17.92308,0.0240796791 16.14428,0.000336363636 C14.37788,-0.0234069519 13.01968,1.2814861 13.02028,3.00188717 C13.02088,4.73119198 14.36788,6.05468396 16.12208,6.04953957" id="Fill-7"></path>
            <path d="M39.6133,19.2148321 L39.6133,20.7688321 C40.8377,21.4215754 42.1945,21.2138214 43.5479,20.7943561 C43.9119,20.6815754 44.1917,20.4120888 44.2133,20.0106289 C44.2359,19.5933401 43.9385,19.3276128 43.5877,19.2063241 C42.2389,18.7401636 40.8839,18.5886021 39.6133,19.2148321" id="Fill-9"></path>
            <path d="M33.05616,16.6173332 C32.76816,16.6931139 32.49016,16.8587235 32.52696,17.2259535 C32.56176,17.5749802 32.82256,17.7324775 33.13836,17.7692797 C34.05516,17.8765203 34.97336,18.0162102 35.89336,18.0356005 C36.33116,18.0447021 36.78876,17.8426861 37.20816,17.6683706 C37.38576,17.5943706 37.59476,17.3454615 37.59536,17.1751032 C37.59596,17.0071193 37.38296,16.7407984 37.20976,16.6863866 C36.52396,16.4715096 35.81716,16.322916 35.11776,16.149392 C34.39776,16.3098572 33.72136,16.4426219 33.05616,16.6173332" id="Fill-11"></path>
            <path d="M38.8884,19.386615 C38.6168,19.2215989 38.2716,19.1749037 37.882,19.053615 C37.2864,19.8062781 36.5334,20.0452941 35.6488,19.9900909 C35.253,19.9653583 34.8514,19.978615 34.456,20.0140321 C34.041,20.0510321 33.621,20.1187005 33.374,20.5514225 C33.7004,20.9770214 34.1358,21.0067005 34.561,21.0114492 C35.4864,21.0223316 36.4156,21.0526043 37.3362,20.9839465 C37.8528,20.9455615 38.3724,20.7661016 38.8564,20.5680428 C39.0612,20.4843476 39.2954,20.1928984 39.3012,19.9896952 C39.3072,19.7868877 39.0872,19.5073102 38.8884,19.386615" id="Fill-13"></path>
            <path d="M41.22072,17.295739 C40.61492,17.1544663 39.98472,17.0713647 39.36232,17.0525679 C38.08752,17.0133914 37.81372,17.2868353 37.71752,18.5329636 C38.46452,18.8637872 39.16632,19.1398032 40.00572,18.6398086 C40.41612,18.3954503 41.02932,18.4821134 41.55152,18.424338 C41.74292,18.4031668 41.93612,18.397231 42.19412,18.3800171 C42.15892,17.6463487 41.70232,17.4079262 41.22072,17.295739" id="Fill-15"></path>
            <path d="M33.44748,19.5653428 C34.23708,19.6213374 35.03288,19.6613053 35.82208,19.623316 C36.23568,19.6031342 36.64848,19.4244658 37.04628,19.2760701 C37.31008,19.1775353 37.53588,18.9418829 37.35648,18.6662626 C37.23748,18.4832412 36.89248,18.2608455 36.73808,18.3134765 C35.55428,18.7163214 34.40448,18.1429203 33.23288,18.2422465 C32.78728,18.280038 32.47668,18.3900487 32.19768,18.8134711 C32.48328,19.3552144 32.94648,19.5297278 33.44748,19.5653428" id="Fill-17"></path>
            <path d="M44.76838,17.517739 C44.13918,16.6752471 43.17998,16.8285893 42.31298,16.7648781 C42.04138,16.7452898 41.99018,17.042477 42.14378,17.2913861 C42.36478,17.650108 42.58198,18.0110064 42.82218,18.4059369 C43.59078,18.5776802 44.27278,18.3821936 44.81478,17.7276695 C44.78318,17.5796695 44.78598,17.5412845 44.76838,17.517739" id="Fill-19"></path>
            <path d="M37.46554,16.3000433 C37.66394,16.4666422 37.88214,16.6500594 38.09114,16.825562 C39.26934,16.4692144 40.41114,16.6759791 41.62894,16.8716636 C41.56454,16.6417492 41.56714,16.5598348 41.52714,16.5218455 C40.64594,15.6846957 38.65734,15.455177 37.53534,16.0630059 C37.49614,16.084177 37.49874,16.1805353 37.46554,16.3000433" id="Fill-21"></path>
            <path d="M40.02746,11.6093535 C40.34946,12.133685 40.49826,12.6855193 40.25746,13.292161 C40.17546,13.4995193 40.12646,13.7195406 40.06226,13.9338241 C40.94966,12.9716262 40.99306,12.1477332 40.28786,11.1384444 C40.17526,10.9771877 40.03526,10.8345299 39.92086,10.6742626 C39.40866,9.95484011 39.45126,9.63925187 40.12626,9.10107005 C40.24486,9.00669037 40.36746,8.91705936 40.61506,8.72849786 C39.00546,8.91844439 38.87546,10.1703107 39.56226,10.9734283 C39.73266,11.1726743 39.89046,11.3863642 40.02746,11.6093535" id="Fill-23"></path>
            <path d="M38.04094,11.4665572 C38.45294,12.007707 38.50854,12.6198888 38.37034,13.2534396 C38.30834,13.5375679 38.17274,13.8058674 38.07054,14.0812898 C39.08674,12.971092 39.13374,12.0842791 38.16934,10.8797016 C37.46134,9.99565882 37.47114,9.44936471 38.48654,8.9105893 C38.50914,8.89851979 38.49714,8.82234332 38.50174,8.77149305 C37.20314,9.1153754 36.89354,9.79997433 37.56594,10.8314235 C37.71014,11.0522364 37.88074,11.256231 38.04094,11.4665572" id="Fill-25"></path>
        </g>
    </g>
</svg>