<?xml version="1.0" encoding="UTF-8"?>
<svg width="11px" height="15px" viewBox="0 0 11 15" version="1.1" xmlns="http://www.w3.org/2000/svg" xmlns:xlink="http://www.w3.org/1999/xlink">
    <!-- Generator: Sketch 51.1 (57501) - http://www.bohemiancoding.com/sketch -->
    <title>phone</title>
    <desc>Created with Sketch.</desc>
    <defs></defs>
    <g id="1440" stroke="none" stroke-width="1" fill="none" fill-rule="evenodd">
        <g id="Catalog" transform="translate(-387.000000, -2392.000000)" fill="#F24841" fill-rule="nonzero">
            <g id="Магазины" transform="translate(350.000000, 1878.000000)">
                <g id="Список-магазинов" transform="translate(20.000000, 162.000000)">
                    <path d="M20.6533388,363.20284 C20.6533388,363.20284 22.8259505,365.097502 25.2504591,365.444856 C25.2504591,365.444856 26.9507639,365.823788 28.1157875,364.43437 C28.1157875,364.43437 28.9187092,363.850183 28.1787618,362.918641 L26.3525085,361.118713 C26.3525085,361.118713 25.9116888,360.61347 25.2032285,361.055558 L24.1169226,362.129199 C24.1169226,362.129199 21.1256457,360.581893 19.929135,357.882 L20.7635438,357.045192 C20.7635438,357.045192 21.5979526,356.303116 20.7792873,355.466307 L18.9530341,353.666379 C18.9530341,353.666379 18.307548,353.208503 17.6620619,353.776901 C17.6620619,353.776901 16.0877057,355.103164 16.5914997,357.329391 C16.5914997,357.329391 16.6387304,359.66614 20.6533388,363.20284 Z" id="phone" transform="translate(22.492059, 359.492059) rotate(17.000000) translate(-22.492059, -359.492059) "></path>
                </g>
            </g>
        </g>
    </g>
</svg>