<?xml version="1.0" encoding="UTF-8"?>
<svg width="37px" height="35px" viewBox="0 0 37 35" version="1.1" xmlns="http://www.w3.org/2000/svg" xmlns:xlink="http://www.w3.org/1999/xlink">
    <!-- Generator: Sketch 51.1 (57501) - http://www.bohemiancoding.com/sketch -->
    <title>Page 1 Copy 9</title>
    <desc>Created with Sketch.</desc>
    <defs></defs>
    <g id="1440" stroke="none" stroke-width="1" fill="none" fill-rule="evenodd">
        <path d="M16.1943607,20.4639868 L16.1943607,22.6008959 L20.804738,22.6008959 L20.804738,20.527386 C19.2475468,21.0457954 17.720299,21.050137 16.1943607,20.4639868 Z M10.3541625,26.575893 L26.6636182,26.575893 C26.6636182,25.8931862 26.6648841,25.2397847 26.6632909,24.5863833 C26.661654,23.9266824 26.4931456,23.7640024 25.8138741,23.7639598 C21.5333333,23.763747 17.2527925,23.7638534 12.9722516,23.763896 C12.3119676,23.7639173 11.6516181,23.7597034 10.9914214,23.7659391 C10.6199217,23.7694293 10.3728881,23.9291937 10.3625432,24.2417844 C10.3369864,25.0152591 10.3541625,25.7900534 10.3541625,26.575893 Z M22.8061707,11.9999461 C22.6924859,12.1374282 22.6047725,12.2508828 22.5092895,12.3577612 C21.9997268,12.9279924 21.367182,13.2647382 20.5839377,13.3027054 C19.90196,13.3357564 19.6771002,13.0409362 19.8426405,12.3986227 C20.4350061,10.1001828 20.0332354,8.0006237 18.4886152,6.13984913 C18.3374793,5.9578025 18.1723755,5.78680124 17.9815187,5.57491717 C17.9364944,5.70229023 17.9203877,5.73238305 17.9157609,5.7640933 C17.9045212,5.84096405 17.8967516,5.91845199 17.8908808,5.99591864 C17.7920586,7.30672253 17.3637055,8.49458003 16.4558641,9.48225859 C15.8177103,10.1765216 15.1209136,10.8197927 14.4881724,11.5184611 C13.4450398,12.6702881 13.0279482,14.0270186 13.3452791,15.5367245 C14.0221717,18.756975 17.3641202,20.5671196 20.5260805,19.4183147 C24.1666343,18.0955928 24.3966664,14.2111509 22.8061707,11.9999461 Z M4.48262396,32.8379653 L32.454951,32.8379653 C32.454951,31.9450557 32.4730437,31.0714276 32.4478362,30.1989914 C32.4337374,29.7109727 32.2097943,29.278032 31.9073479,28.8921459 C31.253895,28.0585707 30.3703881,27.7399571 29.3124584,27.7414256 C22.8424215,27.7503215 16.3723847,27.7449584 9.90234786,27.7468738 C8.97990574,27.7471718 8.05632875,27.73602 7.13530524,27.7753705 C6.04723559,27.8218505 5.00851156,28.6358888 4.67577242,29.6540007 C4.33526369,30.695842 4.5615202,31.7640732 4.48262396,32.8379653 Z M12.8932026,11.7122128 C13.004945,11.5512354 13.116862,11.3401175 13.2753965,11.1703719 C13.9265796,10.473023 14.5840264,9.78084572 15.2541097,9.10079916 C16.0612302,8.28165314 16.5858519,7.33145227 16.6978562,6.19218169 C16.7520906,5.64050845 16.7666258,5.08455751 16.7823396,4.53009632 C16.7898473,4.26560303 16.858093,4.04586589 17.1079857,3.91666257 C17.3636182,3.78450106 17.5865574,3.87092745 17.8045641,4.02417948 C20.4987341,5.91798378 21.5453587,8.50285875 21.1897691,11.6786936 C21.1809083,11.7576926 21.1886342,11.8384792 21.1886342,11.9541046 C21.6617279,11.6730752 21.9183862,11.2759096 22.1236474,10.837393 C22.3797819,10.2901464 22.8360051,10.2217033 23.2345893,10.6859499 C23.5319943,11.0323578 23.8046064,11.3989837 24.0594096,11.7202362 C27.3220035,8.53161079 30.5886131,5.33906952 33.8298189,2.17134311 L3.12820587,2.17134311 C6.38156793,5.35000849 9.63595576,8.52971669 12.8932026,11.7122128 Z M36,1.76862292 C35.8234601,1.9535852 35.6526383,2.14412338 35.469551,2.32267976 C31.9493822,5.75534638 28.4302173,9.18899197 24.9009694,12.6127414 C24.6640188,12.8426088 24.6118142,13.0282947 24.6900557,13.3542292 C25.2003386,15.479795 24.8328764,17.4125668 23.2412895,19.0290447 C22.9447356,19.3302495 22.5824895,19.5734821 22.2334037,19.8203751 C22.0718792,19.9346171 21.9863046,20.0402825 21.9899057,20.2468673 C22.0034152,21.0228321 21.9953182,21.7991799 21.9953182,22.6273921 C22.1361093,22.6273921 22.2560359,22.6274559 22.3759407,22.6273921 C23.5493231,22.6266472 24.7227054,22.6234762 25.8960441,22.6257959 C27.1186193,22.6282221 27.8200864,23.3088007 27.8335523,24.5048518 C27.8399251,25.071316 27.8369351,25.637908 27.83807,26.2044361 C27.83831,26.3235305 27.8381136,26.4426035 27.8381136,26.6058794 C28.4126703,26.6058794 28.9451926,26.5994522 29.4775184,26.6070073 C31.5384671,26.6362063 33.1235066,27.8387484 33.5591709,29.7362984 C33.6549377,30.1534052 33.6562035,30.5949651 33.6664174,31.0260543 C33.6833097,31.7366406 33.6733577,32.4478653 33.6722228,33.1588134 C33.6711534,33.8278572 33.4932604,33.9990712 32.7956125,33.9993692 C30.596972,34.0003695 28.3983315,33.9999225 26.1996909,33.9997523 C18.9088495,33.9991989 11.6180081,33.9985818 4.32718856,33.9974325 C4.1793045,33.99739 4.03098394,33.9959428 3.88358002,33.9855146 C3.56277899,33.9627854 3.34566703,33.7721195 3.34638724,33.4809172 C3.34948635,32.1848405 3.1696073,30.8754625 3.47067882,29.596305 C3.86219183,27.9328789 5.40796876,26.7071181 7.15538395,26.6272253 C7.80220212,26.5976432 8.45161743,26.6224368 9.13796011,26.6224368 C9.14642809,26.4611615 9.15631467,26.3439825 9.15814794,26.2266971 C9.16888569,25.5384144 9.14629714,24.8479822 9.19507531,24.1623385 C9.25738478,23.2862843 9.96727629,22.6480144 10.8731971,22.6348834 C12.1146288,22.6169213 13.3565407,22.6284775 14.5982343,22.6274134 C14.7206926,22.627307 14.8431291,22.6273921 15.0018382,22.6273921 C15.0018382,21.8726668 14.9789222,21.1530357 15.0107208,20.435703 C15.0289008,20.0254276 14.9074682,19.7669784 14.5654754,19.4948662 C12.9621904,18.2192415 12.0756063,16.5743308 12.0895086,14.5274234 C12.0924113,14.0997394 12.1789025,13.6665007 12.2793834,13.247819 C12.3406671,12.9926047 12.3153941,12.830478 12.1173569,12.6381735 C8.51748433,9.14193736 4.92601425,5.63748639 1.33330017,2.13424851 C1.25296351,2.05590929 1.16690878,1.9790811 1.10479572,1.88778111 C0.863109168,1.53271142 1.05907301,1.09638688 1.49166008,1.02528356 C1.61416203,1.00515074 1.741269,1.00653407 1.86623714,1.00651279 C12.9505797,1.00523587 24.0349223,1.00574664 35.1192649,1.00000049 C35.4804852,0.999808947 35.7895446,1.05614253 36,1.36864812 L36,1.76862292 Z" id="Page-1-Copy-9" stroke="#F24841" stroke-width="0.4" fill="#F24841"></path>
    </g>
</svg>