<svg xmlns="http://www.w3.org/2000/svg" width="13" height="20" viewBox="0 0 13 20">
    <g fill="#F24841" fill-rule="nonzero">
        <path d="M6.476 18l-.289-.373C5.922 17.301 0 9.64 0 6.287 0 2.817 2.913 0 6.5 0S13 2.818 13 6.287c0 3.353-5.946 11.014-6.187 11.34L6.476 18zm0-17.278C3.298.722.722 3.213.722 6.287c0 2.701 4.526 8.895 5.754 10.502 1.228-1.607 5.754-7.8 5.754-10.502 0-3.074-2.6-5.565-5.754-5.565zm0 8.29c-1.565 0-2.817-1.235-2.817-2.725S4.911 3.54 6.476 3.54c1.565 0 2.817 1.235 2.817 2.748 0 1.514-1.252 2.725-2.817 2.725zm0-4.75c-1.156 0-2.07.907-2.07 2.002 0 1.094.938 2.002 2.07 2.002 1.131 0 2.07-.908 2.07-2.002 0-1.095-.939-2.003-2.07-2.003z"/>
        <path d="M7.238 20c-2.937 0-5.14-.91-5.234-2.16-.095-1.158 1.587-1.658 2.581-1.84l.45.59c-1.776.16-2.368.955-2.344 1.183.047.522 1.563 1.613 4.5 1.613 2.794 0 4.073-1.045 4.097-1.545.023-.341-.948-1.182-2.345-1.25L9.417 16c2.415.432 2.605 1.477 2.581 1.91-.094 1.226-2.06 2.09-4.76 2.09z"/>
    </g>
</svg>
