<?xml version="1.0" encoding="UTF-8"?>
<svg width="37px" height="37px" viewBox="0 0 37 37" version="1.1" xmlns="http://www.w3.org/2000/svg" xmlns:xlink="http://www.w3.org/1999/xlink">
    <!-- Generator: Sketch 51.1 (57501) - http://www.bohemiancoding.com/sketch -->
    <title>grill copy 4</title>
    <desc>Created with Sketch.</desc>
    <defs></defs>
    <g id="1440" stroke="none" stroke-width="1" fill="none" fill-rule="evenodd">
        <g id="grill-copy-4" transform="translate(1.000000, 1.000000)" fill="#F24841" fill-rule="nonzero">
            <circle id="Oval" cx="11.3476562" cy="13.3300781" r="1.02539062"></circle>
            <circle id="Oval" cx="15.4492188" cy="13.3300781" r="1.02539062"></circle>
            <circle id="Oval" cx="19.5507813" cy="13.3300781" r="1.02539062"></circle>
            <circle id="Oval" cx="23.6523438" cy="13.3300781" r="1.02539062"></circle>
            <path d="M33.9746094,8.203125 L28.5545313,8.203125 L26.6978906,0.776699219 C26.5837988,0.320263672 26.1736426,0 25.703125,0 L9.296875,0 C8.82635742,0 8.41620117,0.320263672 8.30210938,0.776699219 L6.44546875,8.203125 L1.02539062,8.203125 C0.459101562,8.203125 0,8.66222656 0,9.22851562 L0,13.3300781 C0,13.8963672 0.459101563,14.3554688 1.02539062,14.3554688 L6.22070312,14.3554688 C6.22070312,14.8889453 6.22070312,28.4891797 6.22070312,29.0240234 C5.0272168,29.4473047 4.16992188,30.5870605 4.16992188,31.9238281 C4.16992188,33.6200293 5.54989258,35 7.24609375,35 C8.94229492,35 10.3222656,33.6200293 10.3222656,31.9238281 C10.3222656,31.5643945 10.2597168,31.2193848 10.1458984,30.8984375 L22.6269531,30.8984375 C22.6269531,33.1600391 24.4669141,35 26.7285156,35 C28.9901172,35 30.8300781,33.1600391 30.8300781,30.8984375 C30.8300781,29.3836621 30.0040234,28.0589941 28.7792969,27.3486719 C28.7792969,27.2420313 28.7792969,14.5262305 28.7792969,14.3554688 L33.9746094,14.3554688 C34.5408984,14.3554688 35,13.8963672 35,13.3300781 L35,9.22851562 C35,8.66222656 34.5408984,8.203125 33.9746094,8.203125 Z M10.0974316,2.05078125 L24.9025,2.05078125 L26.4405859,8.203125 L24.6777344,8.203125 L24.6777344,7.17773438 C24.6777344,5.4815332 23.2977637,4.1015625 21.6015625,4.1015625 L13.3984375,4.1015625 C11.7022363,4.1015625 10.3222656,5.4815332 10.3222656,7.17773438 L10.3222656,8.203125 L8.5593457,8.203125 L10.0974316,2.05078125 Z M22.6269531,7.17773438 L22.6269531,8.203125 L12.3730469,8.203125 L12.3730469,7.17773438 C12.3730469,6.61233398 12.8330371,6.15234375 13.3984375,6.15234375 L21.6015625,6.15234375 C22.1669629,6.15234375 22.6269531,6.61233398 22.6269531,7.17773438 Z M8.27148438,10.2539062 C8.8830957,10.2539062 26.0125195,10.2539062 26.7285156,10.2539062 C26.7285156,10.9059863 26.7285156,15.7541699 26.7285156,16.40625 L8.27148438,16.40625 C8.27148438,15.7541699 8.27148438,10.9059863 8.27148438,10.2539062 Z M2.05078125,12.3046875 L2.05078125,10.2539062 L6.22070312,10.2539062 L6.22070312,12.3046875 L2.05078125,12.3046875 Z M7.24609375,32.9492188 C6.68069336,32.9492188 6.22070312,32.4892285 6.22070312,31.9238281 C6.22070312,31.3584277 6.68069336,30.8984375 7.24609375,30.8984375 C7.81149414,30.8984375 8.27148438,31.3584277 8.27148438,31.9238281 C8.27148438,32.4892285 7.81149414,32.9492188 7.24609375,32.9492188 Z M16.4746094,28.8476563 L8.27148438,28.8476563 L8.27148438,18.4570313 L16.4746094,18.4570313 L16.4746094,28.8476563 Z M23.17875,28.8476563 L18.5253906,28.8476563 L18.5253906,18.4570313 L26.7285156,18.4570313 L26.7285156,26.796875 C25.2137402,26.796875 23.8890723,27.6229297 23.17875,28.8476563 Z M26.7285156,32.9492188 C25.5977148,32.9492188 24.6777344,32.0292383 24.6777344,30.8984375 C24.6777344,29.7676367 25.5977148,28.8476562 26.7285156,28.8476562 C27.8593164,28.8476562 28.7792969,29.7676367 28.7792969,30.8984375 C28.7792969,32.0292383 27.8593164,32.9492188 26.7285156,32.9492188 Z M32.9492188,12.3046875 L28.7792969,12.3046875 L28.7792969,10.2539062 L32.9492188,10.2539062 L32.9492188,12.3046875 Z" id="Shape" stroke="#2C2C2A" stroke-width="0.4"></path>
        </g>
    </g>
</svg>