<svg height="33" viewBox="0 0 34 33" width="34" xmlns="http://www.w3.org/2000/svg"><g fill="none" fill-rule="evenodd"><circle cx="17.1" cy="16.5" fill="#fff" r="16.5"/><g fill="#2c2c2a" fill-rule="nonzero" stroke="#2c2c2a" stroke-width=".4" transform="translate(8.85 8.25)"><path d="m12.143 0h-6.99a5.158 5.158 0 0 0 -5.153 5.152v6.99a5.158 5.158 0 0 0 5.152 5.153h6.99a5.158 5.158 0 0 0 5.153-5.152v-6.99a5.158 5.158 0 0 0 -5.152-5.153zm3.412 12.143a3.412 3.412 0 0 1 -3.412 3.412h-6.99a3.412 3.412 0 0 1 -3.413-3.412v-6.99a3.412 3.412 0 0 1 3.412-3.413h6.99a3.412 3.412 0 0 1 3.413 3.412v6.99z"/><path d="m8.647 4.174a4.478 4.478 0 0 0 -4.473 4.473 4.478 4.478 0 0 0 4.473 4.473 4.478 4.478 0 0 0 4.473-4.473 4.478 4.478 0 0 0 -4.473-4.473zm0 7.207a2.733 2.733 0 1 1 0-5.467 2.733 2.733 0 0 1 0 5.467z"/><circle cx="13.129" cy="4.208" r="1.072"/></g></g></svg>