<?xml version="1.0" encoding="UTF-8"?>
<svg width="42px" height="28px" viewBox="0 0 42 28" version="1.1" xmlns="http://www.w3.org/2000/svg" xmlns:xlink="http://www.w3.org/1999/xlink">
    <!-- Generator: Sketch 51.1 (57501) - http://www.bohemiancoding.com/sketch -->
    <title>stone-oven copy 4</title>
    <desc>Created with Sketch.</desc>
    <defs></defs>
    <g id="1440" stroke="none" stroke-width="1" fill="none" fill-rule="evenodd">
        <g id="stone-oven-copy-4" transform="translate(1.000000, 1.000000)" fill-rule="nonzero">
            <path d="M39.2307812,19.1833446 L37.6923437,19.1833446 L37.6923437,0.819025905 C37.6923437,0.396495888 37.3478906,0.0538556743 36.923125,0.0538556743 L3.07695312,0.0538556743 C2.6521875,0.0538556743 2.30773437,0.396495888 2.30773437,0.819025905 L2.30773437,19.1834223 L0.76921875,19.1834223 C0.344453125,19.1834223 0,19.5260625 0,19.9485925 L0,26.0700321 C0,26.4925621 0.344453125,26.8352023 0.76921875,26.8352023 L39.2307812,26.8352023 C39.6555469,26.8352023 40,26.4925621 40,26.0700321 L40,19.9485925 C40,19.5259848 39.6555469,19.1833446 39.2307812,19.1833446 Z M31.5122656,16.8878339 L36.1539062,16.8878339 L36.1539062,19.1833446 L31.5385156,19.1833446 L31.5385156,17.6530041 C31.5384375,17.3958491 31.5289844,17.1408701 31.5122656,16.8878339 Z M31.3064844,15.3574157 C31.1429688,14.5591394 30.8952344,13.791016 30.5740625,13.061905 L32.3564844,13.061905 L32.3564844,15.3574157 L31.3064844,15.3574157 Z M33.8948438,15.3574157 L33.8948438,13.061905 L36.1538281,13.061905 L36.1538281,15.3574157 L33.8948438,15.3574157 Z M36.1538281,7.70563569 L32.3076562,7.70563569 L32.3076562,5.41004729 L36.1538281,5.41004729 L36.1538281,7.70563569 Z M31.1538281,1.58427385 L36.1538281,1.58427385 L36.1538281,3.87978454 L31.1538281,3.87978454 L31.1538281,1.58427385 Z M31.1538281,9.23605387 L36.1538281,9.23605387 L36.1538281,11.5316423 L31.1538281,11.5316423 L31.1538281,9.23605387 Z M30.7692187,7.70563569 L26.1538281,7.70563569 L26.1538281,5.41004729 L30.7692187,5.41004729 L30.7692187,7.70563569 Z M23.5039844,12.9462669 C23.4504687,12.5978758 23.1646875,12.3310066 22.8117969,12.2997656 C22.4576562,12.2691464 22.1303125,12.4811497 22.015625,12.8146197 C22.0121875,12.8246447 21.6571094,13.827153 20.7307031,13.827153 C20.1400781,13.827153 19.45625,12.3635687 19.209375,11.3527451 C19.1339062,11.0401801 18.87,10.8079712 18.5488281,10.771368 C18.2278906,10.7352311 17.9179688,10.9019272 17.7734375,11.1894683 C17.7072656,11.3210378 16.15375,14.4442784 16.15375,17.2704967 C16.15375,17.9779256 16.3935156,18.6359285 16.8036719,19.1834223 L10,19.1834223 L10,17.6530818 C10,12.1680407 14.4859375,7.7057134 20,7.7057134 C25.5140625,7.7057134 30,12.1680407 30,17.6530818 L30,19.1834223 L23.19625,19.1834223 C23.6064063,18.6359285 23.8461719,17.9778479 23.8461719,17.2704967 C23.8461719,15.1956155 23.5178906,13.0371143 23.5039844,12.9462669 Z M22.3076563,17.270419 C22.3076563,18.3252286 21.2724219,19.1833446 20,19.1833446 C18.7275781,19.1833446 17.6923437,18.3252286 17.6923437,17.270419 C17.6923437,16.0169729 18.0667969,14.6475 18.4360156,13.6018606 C19.209375,15.0465604 20.1040625,15.3574934 20.7307812,15.3574934 C21.3110938,15.3574934 21.7954688,15.1899424 22.1897656,14.9398594 C22.2536719,15.6399831 22.3076563,16.4687233 22.3076563,17.270419 Z M8.4615625,7.70563569 L8.4615625,5.41004729 L12.3077344,5.41004729 L12.3077344,7.70563569 L8.4615625,7.70563569 Z M10.3846094,11.3160641 L10.3846094,9.23605387 L12.164375,9.23605387 C11.4919531,9.85582155 10.8938281,10.5540025 10.3846094,11.3160641 Z M13.8461719,5.41004729 L18.4615625,5.41004729 L18.4615625,6.27756661 C16.9448438,6.47946711 15.5203906,6.97512582 14.2485156,7.70563569 L13.8461719,7.70563569 L13.8461719,5.41004729 Z M20,6.17529523 L20,5.410125 L24.6153906,5.410125 L24.6153906,7.13467229 C23.20125,6.51832401 21.6402344,6.17529523 20,6.17529523 Z M27.835625,9.23605387 L29.6153906,9.23605387 L29.6153906,11.3160641 C29.1061719,10.5540025 28.5079687,9.85589926 27.835625,9.23605387 Z M24.2307812,1.58427385 L29.6153906,1.58427385 L29.6153906,3.87978454 L24.2307812,3.87978454 L24.2307812,1.58427385 Z M17.3076563,1.58427385 L22.6922656,1.58427385 L22.6922656,3.87978454 L17.3076563,3.87978454 L17.3076563,1.58427385 Z M10.3846094,1.58427385 L15.7692188,1.58427385 L15.7692188,3.87978454 L10.3846094,3.87978454 L10.3846094,1.58427385 Z M3.84617187,1.58427385 L8.84617187,1.58427385 L8.84617187,3.87978454 L3.84617187,3.87978454 L3.84617187,1.58427385 Z M3.84617188,5.41004729 L6.923125,5.41004729 L6.923125,7.70563569 L3.84617188,7.70563569 L3.84617188,5.41004729 Z M3.84617187,9.23605387 L8.84617187,9.23605387 L8.84617187,11.5316423 L3.84617187,11.5316423 L3.84617187,9.23605387 Z M9.42601563,13.061905 C9.10484375,13.791016 8.85710938,14.5591394 8.69351563,15.3574157 L7.69234375,15.3574157 L7.69234375,13.061905 L9.42601563,13.061905 Z M3.84617188,13.061905 L6.15382812,13.061905 L6.15382812,15.3574157 L3.84617188,15.3574157 L3.84617188,13.061905 Z M3.84617188,16.8878339 L8.4878125,16.8878339 C8.4709375,17.1408701 8.4615625,17.3958491 8.4615625,17.6530041 L8.4615625,19.1833446 L3.84617188,19.1833446 L3.84617188,16.8878339 Z M10.7692188,23.7858676 C20.6654688,23.7858676 35.005,23.7772414 38.4615625,23.7749877 L38.4615625,25.3047841 L1.5384375,25.3047841 L1.5384375,23.7798836 C2.27789063,23.7832253 3.63140625,23.783847 6.15335938,23.784935 C6.5784375,23.784935 6.9228125,23.442528 6.92296875,23.0201534 C6.92320313,22.5975456 6.57890625,22.25475 6.15414063,22.2545946 C3.64265625,22.2535066 2.2653125,22.2515637 1.5384375,22.2494655 L1.5384375,20.7137627 L38.4615625,20.7137627 L38.4614844,22.2446472 C35.0069531,22.2468232 20.6660156,22.2555271 10.7692188,22.2555271 C10.3444531,22.2555271 10,22.5981674 10,23.0206974 C10,23.4432274 10.3444531,23.7858676 10.7692188,23.7858676 Z" id="Shape" stroke="#2C2C2A" stroke-width="0.3" fill="#F24841"></path>
            <path d="M8.4615625,22.2551386 C8.03679688,22.2551386 7.69234375,22.5980896 7.69234375,23.0206974 C7.69234375,23.4433051 8.03679688,23.7858676 8.4615625,23.7858676 C8.88632813,23.7858676 9.23078125,23.4432274 9.23078125,23.0206974 L9.23078125,23.0198425 C9.23078125,22.5972348 8.88632813,22.2551386 8.4615625,22.2551386 Z" id="Shape" fill="#EBEDEC"></path>
        </g>
    </g>
</svg>