<svg xmlns="http://www.w3.org/2000/svg" width="24" height="17" viewBox="0 0 24 17">
    <g fill="none" fill-rule="nonzero">
        <path fill="#41479B" d="M23.54 16.221H.413A.413.413 0 0 1 0 15.808V.941C0 .713.185.528.413.528H23.54c.228 0 .413.185.413.413v14.867a.413.413 0 0 1-.413.413z"/>
        <path fill="#F5F5F5" d="M23.953.94a.413.413 0 0 0-.413-.412h-1.848l-7.65 5.012V.528h-4.13V5.54L2.26.528H.413A.413.413 0 0 0 0 .94v1.068l6.564 4.3H0v4.13h6.564L0 14.74v1.068c0 .228.185.413.413.413h1.848l7.65-5.013v5.013h4.13v-5.013l7.652 5.013h1.847a.413.413 0 0 0 .413-.413V14.74l-6.564-4.3h6.564V6.31H17.39l6.564-4.301V.94z"/>
        <g fill="#FF4B55">
            <path d="M23.953 7.135H13.216V.528h-2.478v6.607H0v2.478h10.738v6.608h2.478V9.613h10.737z"/>
            <path d="M8.372 10.44l-8.36 5.426c.029.2.193.355.401.355h.569l8.907-5.782H8.372zM16.205 10.44h-1.517l8.894 5.773a.409.409 0 0 0 .371-.405v-.34l-7.748-5.029zM0 1.397l7.569 4.912h1.517L.24.568A.411.411 0 0 0 0 .94v.456zM15.559 6.31l8.38-5.44a.407.407 0 0 0-.399-.342h-.591l-8.907 5.781h1.517z"/>
        </g>
    </g>
</svg>
