<svg xmlns="http://www.w3.org/2000/svg" width="45" height="37" viewBox="0 0 45 37">
    <g fill="#EBEDEC" fill-rule="evenodd">
        <path d="M15.858 20.834H.002v2.237c-.001 4.055-.004 8.11 0 12.165 0 .247.062.494.092.717H24.55v-7.51h-8.693v-7.609zM44.594 29.175c0-1.909.008-3.818-.002-5.727-.008-1.357-.563-1.952-1.897-2.007-.795-.033-1.592.005-2.389.003-2.025-.006-4.05-.009-6.074-.03-1.023-.01-2.044.546-2.033 2.019.029 3.818.006 7.636.014 11.455.003 1.411.623 2.007 2.09 2.021 1.862.02 3.724.035 5.587.032 1.06-.002 2.126.006 3.181-.085.92-.078 1.416-.65 1.51-1.559.026-.26.013-.526.013-.789v-5.333"/>
        <path d="M19.293 16.992h-2.627l.417-2.395 2.21 2.395m16.692-7.14c.005-.744-.22-1.412-.909-1.91l-3.201 4.054c-1.907-.777-3.777-1.16-5.507-1.018-.618-.228-1.029-.44-1.464-.526-1.075-.212-2.167-.338-3.24-.554-.407-.082-.852-.237-1.157-.498-.9-.773-1.741-1.614-2.602-2.431-.273-.259-.525-.456-.963-.315-1.017.325-1.946.098-2.848-.461-.918-.57-1.485-.27-1.672.788-.379 2.136-.778 4.27-1.143 6.407-.244 1.426-.422 2.862-.67 4.287-.207 1.184.561 2.305 1.869 2.442.82.085 1.655.037 2.483.052.745.013 1.49.031 2.28.049-.185 1.055-.343 1.991-.514 2.925-.155.84-.348 1.675-.48 2.519-.14.906.42 1.703 1.251 1.853.922.165 1.699-.365 1.904-1.319.09-.417.138-.843.214-1.264.283-1.576.547-3.157.866-4.727.177-.873.297-1.727-.003-2.588.9-.903.905-1.075.035-2.019-.696-.755-1.37-1.533-2.108-2.245-.663-.64-.78-1.426-.755-2.253.013-.444.16-.885.272-1.46.546.474 1.034.862 1.478 1.293.45.436.981.644 1.586.74 1.212.196 2.417.439 3.633.599.366.048.834-.007 1.123-.204.424-.289.848-.355 1.315-.34 1.614.048 3.163.36 4.621 1.08.313.155.686.264 1.032.264 1.7.006 3.261-1.533 3.274-3.22"/>
        <path d="M16.122 6.05c1.694-.005 3.064-1.325 3.09-2.976C19.24 1.343 17.923.024 16.144 0c-1.766-.023-3.124 1.281-3.124 3.002 0 1.73 1.348 3.053 3.102 3.048M39.613 19.215v1.554c1.225.653 2.581.445 3.935.025.364-.112.644-.382.665-.783.023-.418-.275-.683-.625-.805-1.35-.466-2.704-.617-3.975.009M33.056 16.617c-.288.076-.566.242-.529.609.035.349.296.506.611.543.917.108 1.835.247 2.755.267.438.009.896-.193 1.315-.368.178-.074.387-.323.387-.493.001-.168-.212-.434-.385-.489-.686-.214-1.393-.363-2.092-.537-.72.16-1.397.294-2.062.468M38.888 19.387c-.271-.165-.616-.212-1.006-.333-.596.752-1.349.991-2.233.936a7.9 7.9 0 0 0-1.193.024c-.415.037-.835.105-1.082.537.326.426.762.456 1.187.46.925.011 1.855.042 2.775-.027.517-.038 1.036-.218 1.52-.416.205-.084.44-.375.445-.578.006-.203-.214-.483-.413-.603M41.22 17.296a9.497 9.497 0 0 0-1.858-.243c-1.274-.04-1.548.234-1.644 1.48.747.33 1.448.607 2.288.107.41-.245 1.023-.158 1.546-.216.19-.02.384-.027.642-.044-.035-.734-.492-.972-.973-1.084"/>
        <path d="M33.447 19.565c.79.056 1.586.096 2.375.058.414-.02.826-.199 1.224-.347.264-.098.49-.334.31-.61-.119-.183-.464-.405-.618-.353-1.184.403-2.334-.17-3.505-.07-.446.037-.756.147-1.035.57.285.542.748.717 1.25.752M44.768 17.518c-.629-.843-1.588-.69-2.455-.753-.272-.02-.323.277-.17.526.222.36.439.72.68 1.115.768.172 1.45-.024 1.992-.678-.032-.148-.029-.187-.047-.21M37.466 16.3l.625.526c1.178-.357 2.32-.15 3.538.046-.064-.23-.062-.312-.102-.35-.881-.837-2.87-1.067-3.992-.459-.039.021-.036.118-.07.237M40.027 11.61c.322.524.471 1.076.23 1.682-.082.208-.13.428-.195.642.888-.962.931-1.786.226-2.796-.113-.16-.253-.303-.367-.464-.512-.72-.47-1.035.205-1.573.119-.094.241-.184.49-.373-1.61.19-1.74 1.442-1.054 2.245.17.2.328.413.465.636M38.04 11.467c.413.54.469 1.153.33 1.786-.062.285-.197.553-.3.828 1.017-1.11 1.064-1.997.1-3.201-.709-.884-.699-1.43.317-1.97.022-.011.01-.088.015-.139-1.299.344-1.608 1.029-.936 2.06.144.221.315.425.475.636"/>
    </g>
</svg>
