<svg xmlns="http://www.w3.org/2000/svg" width="23" height="22" viewBox="0 0 23 22">
    <path fill="#FFF" fill-rule="evenodd" stroke="#FFF" stroke-width=".4" d="M10.117 12.796v1.295h2.766v-1.256c-.934.314-1.85.317-2.766-.039zm-3.505 3.705h9.786v-1.206c-.001-.4-.102-.499-.51-.499H8.183c-.396 0-.792-.002-1.188.002-.223.002-.371.098-.377.288-.016.469-.006.938-.006 1.415zm7.472-8.834c-.069.083-.121.152-.178.216-.306.346-.686.55-1.156.573-.409.02-.544-.158-.444-.548.355-1.393.114-2.665-.813-3.793-.09-.11-.19-.214-.304-.342-.027.077-.037.095-.04.114a2.054 2.054 0 0 0-.014.14c-.06.795-.317 1.515-.861 2.114-.383.42-.801.81-1.181 1.234-.626.698-.876 1.52-.686 2.435.406 1.952 2.411 3.049 4.309 2.353 2.184-.802 2.322-3.156 1.368-4.496zM3.09 20.296h16.783c0-.541.01-1.07-.004-1.6-.009-.295-.143-.558-.325-.792-.392-.505-.922-.698-1.557-.697-3.882.005-7.764.002-11.646.003-.553 0-1.107-.006-1.66.017-.653.029-1.276.522-1.476 1.14-.204.63-.068 1.278-.115 1.929zM8.136 7.492c.067-.097.134-.225.23-.328.39-.423.784-.842 1.186-1.254.485-.497.8-1.073.867-1.763.032-.335.041-.672.05-1.008.005-.16.046-.293.196-.371.153-.08.287-.028.418.065 1.616 1.148 2.244 2.714 2.03 4.639-.004.048 0 .097 0 .167.284-.17.438-.411.561-.677.154-.332.428-.373.667-.092.178.21.342.432.495.627l5.862-5.787H2.277l5.859 5.782zM22 1.466c-.106.112-.208.227-.318.336-2.112 2.08-4.224 4.161-6.341 6.236-.143.14-.174.252-.127.45.306 1.288.086 2.459-.87 3.439-.177.182-.395.33-.604.48-.097.069-.148.133-.146.258.008.47.003.94.003 1.443h.229c.704 0 1.408-.003 2.112-.001.733.001 1.154.413 1.162 1.138.004.344.002.687.003 1.03v.244c.345 0 .664-.004.984 0 1.236.018 2.187.747 2.449 1.897.057.253.058.52.064.782.01.43.004.861.003 1.292 0 .406-.107.51-.526.51H16.12c-4.375 0-8.75 0-13.124-.002-.088 0-.177 0-.266-.007-.192-.014-.323-.13-.322-.306.002-.785-.106-1.579.074-2.354.235-1.008 1.163-1.75 2.211-1.8.388-.017.778-.002 1.19-.002.005-.098.01-.169.012-.24.006-.417-.007-.836.022-1.251.037-.531.463-.918 1.007-.926.745-.01 1.49-.004 2.235-.004H9.4c0-.458-.014-.894.005-1.329.011-.248-.062-.405-.267-.57-.962-.773-1.494-1.77-1.485-3.01.001-.26.053-.522.114-.776.036-.155.021-.253-.098-.37C5.51 5.935 3.356 3.811 1.2 1.687c-.048-.047-.1-.094-.137-.149-.145-.215-.028-.48.232-.523.073-.012.15-.011.225-.011 6.65 0 13.301 0 19.952-.004.216 0 .402.034.528.223v.243z"/>
</svg>
