<svg xmlns="http://www.w3.org/2000/svg" width="20" height="23" viewBox="0 0 20 23">
    <g fill="none" fill-rule="nonzero">
        <path fill="#E2574C" d="M1.45 0h12.121l6.424 6.433v15.079a1.43 1.43 0 0 1-1.426 1.434H1.45a1.43 1.43 0 0 1-1.427-1.434V1.434C.024.642.664 0 1.451 0z"/>
        <path fill="#B53629" d="M19.975 6.453h-4.972a1.43 1.43 0 0 1-1.427-1.434V.014l6.399 6.44z"/>
        <path fill="#FFF" d="M14.645 10.873c.239 0 .356-.21.356-.413 0-.21-.122-.413-.356-.413h-1.361c-.266 0-.415.222-.415.466v3.363c0 .3.17.466.4.466.228 0 .398-.167.398-.466v-.923h.824c.255 0 .383-.21.383-.419 0-.204-.128-.407-.383-.407h-.824v-1.254h.978zm-4.6-.826h-.996a.441.441 0 0 0-.462.463v3.368c0 .344.276.452.473.452h1.045c1.237 0 2.054-.819 2.054-2.081 0-1.335-.77-2.202-2.114-2.202zm.048 3.452h-.607v-2.621h.547c.828 0 1.188.558 1.188 1.33 0 .72-.354 1.291-1.128 1.291zm-3.648-3.452h-.986c-.28 0-.435.185-.435.466v3.363c0 .3.179.466.418.466.24 0 .418-.167.418-.466v-.982h.618c.764 0 1.393-.544 1.393-1.418 0-.855-.607-1.429-1.426-1.429zm-.016 2.058H5.86v-1.268h.569c.35 0 .574.275.574.634s-.223.634-.574.634z"/>
    </g>
</svg>
