<svg xmlns="http://www.w3.org/2000/svg" width="27" height="27" viewBox="0 0 27 27">
    <g fill="none" fill-rule="nonzero" transform="translate(1 1)">
        <circle cx="8.105" cy="9.521" r="1" fill="#000"/>
        <circle cx="11.035" cy="9.521" r="1" fill="#000"/>
        <circle cx="13.965" cy="9.521" r="1" fill="#000"/>
        <circle cx="16.895" cy="9.521" r="1" fill="#000"/>
        <path fill="#FFF" stroke="#2C2C2A" stroke-width=".4" d="M24.268 5.86h-3.872L19.07.554A.732.732 0 0 0 18.36 0H6.64a.732.732 0 0 0-.71.555L4.604 5.859H.732A.732.732 0 0 0 0 6.592v2.93c0 .404.328.732.732.732h3.711V20.73a2.2 2.2 0 0 0-1.464 2.072A2.2 2.2 0 0 0 5.176 25a2.2 2.2 0 0 0 2.071-2.93h8.915a2.933 2.933 0 0 0 2.93 2.93 2.933 2.933 0 0 0 2.93-2.93 2.93 2.93 0 0 0-1.465-2.535v-9.281h3.71A.732.732 0 0 0 25 9.52v-2.93a.732.732 0 0 0-.732-.732zM7.212 1.464h10.576l1.098 4.394h-1.259v-.732A2.2 2.2 0 0 0 15.43 2.93H9.57a2.2 2.2 0 0 0-2.197 2.197v.732h-1.26l1.1-4.394zm8.95 3.662v.732H8.838v-.732c0-.404.328-.732.732-.732h5.86c.404 0 .732.328.732.732zM5.908 7.324h13.184v4.395H5.908V7.324zM1.465 8.79V7.324h2.978V8.79H1.465zm3.71 14.746a.733.733 0 1 1 .002-1.466.733.733 0 0 1-.001 1.466zm6.593-2.93h-5.86v-7.421h5.86v7.421zm4.788 0h-3.324v-7.421h5.86v5.957a2.93 2.93 0 0 0-2.536 1.464zm2.536 2.93a1.467 1.467 0 0 1-1.465-1.465c0-.807.657-1.465 1.465-1.465s1.465.658 1.465 1.465c0 .808-.657 1.465-1.465 1.465zM23.535 8.79h-2.978V7.324h2.978V8.79z"/>
    </g>
</svg>
