<?xml version="1.0" encoding="UTF-8"?>
<svg width="14px" height="14px" viewBox="0 0 14 14" version="1.1" xmlns="http://www.w3.org/2000/svg" xmlns:xlink="http://www.w3.org/1999/xlink">
    <!-- Generator: Sketch 51.1 (57501) - http://www.bohemiancoding.com/sketch -->
    <title>planet</title>
    <desc>Created with Sketch.</desc>
    <defs></defs>
    <g id="1440" stroke="none" stroke-width="1" fill="none" fill-rule="evenodd">
        <g id="Catalog" transform="translate(-386.000000, -2454.000000)" fill="#F24841" fill-rule="nonzero" stroke="#F24841" stroke-width="0.4">
            <g id="Магазины" transform="translate(350.000000, 1878.000000)">
                <g id="Список-магазинов" transform="translate(20.000000, 162.000000)">
                    <path d="M23.0160858,415 L22.9839142,415 C19.6863271,415 17,417.702413 17,421 C17,424.313673 19.6863271,427 23,427 C26.3136729,427 29,424.313673 29,421 C29,417.702413 26.3136729,415 23.0160858,415 Z M21.0857909,415.997319 C20.5871314,416.576408 20.1849866,417.380697 19.9276139,418.345845 C19.4932976,418.184987 19.0911528,417.975871 18.7533512,417.75067 C19.3485255,416.962466 20.152815,416.351206 21.0857909,415.997319 Z M18.383378,418.281501 C18.7855228,418.55496 19.2520107,418.780161 19.766756,418.97319 C19.6541555,419.504021 19.5898123,420.08311 19.5737265,420.678284 L17.6434316,420.678284 C17.7077748,419.809651 17.9651475,418.989276 18.383378,418.281501 Z M17.6434316,421.321716 L19.5737265,421.321716 C19.5898123,421.900804 19.6541555,422.463807 19.7506702,422.978552 C19.2359249,423.171582 18.7533512,423.396783 18.3512064,423.670241 C17.9490617,422.978552 17.691689,422.174263 17.6434316,421.321716 Z M18.7211796,424.217158 C19.0589812,423.975871 19.461126,423.782842 19.9115282,423.605898 C20.1689008,424.587131 20.5871314,425.407507 21.0857909,426.002681 C20.1367292,425.648794 19.3163539,425.021448 18.7211796,424.217158 Z M22.6782842,426.324397 C21.7453083,426.115282 20.9410188,424.97319 20.5227882,423.412869 C21.1823056,423.235925 21.922252,423.123324 22.6782842,423.091153 L22.6782842,426.324397 Z M22.6782842,422.447721 C21.8739946,422.479893 21.0857909,422.592493 20.3780161,422.785523 C20.2975871,422.319035 20.233244,421.820375 20.2171582,421.321716 L22.6782842,421.321716 L22.6782842,422.447721 Z M22.6782842,420.678284 L20.2171582,420.678284 C20.233244,420.147453 20.2975871,419.648794 20.3941019,419.16622 C21.1018767,419.359249 21.8739946,419.47185 22.6782842,419.487936 L22.6782842,420.678284 Z M22.6782842,418.844504 C21.922252,418.828418 21.1983914,418.715818 20.538874,418.538874 C20.9571046,417.010724 21.7613941,415.884718 22.6782842,415.675603 L22.6782842,418.844504 Z M23.3217158,415.675603 C24.2386059,415.884718 25.0428954,417.010724 25.461126,418.538874 C24.8016086,418.715818 24.077748,418.828418 23.3217158,418.844504 C23.3217158,418.844504 23.3217158,415.675603 23.3217158,415.675603 Z M23.3217158,419.487936 C24.1260054,419.455764 24.8981233,419.343164 25.6058981,419.150134 C25.7024129,419.632708 25.766756,420.147453 25.7828418,420.662198 L23.3217158,420.662198 L23.3217158,419.487936 Z M23.3217158,421.321716 L25.7828418,421.321716 C25.766756,421.836461 25.7184987,422.319035 25.6219839,422.785523 C24.9142091,422.592493 24.1260054,422.479893 23.3217158,422.447721 L23.3217158,421.321716 Z M23.3217158,426.324397 L23.3217158,423.091153 C24.077748,423.123324 24.8176944,423.219839 25.4772118,423.412869 C25.0589812,424.97319 24.2546917,426.099196 23.3217158,426.324397 Z M24.9142091,426.002681 C25.4289544,425.407507 25.8310992,424.587131 26.0884718,423.605898 C26.538874,423.766756 26.924933,423.975871 27.2788204,424.217158 C26.6836461,425.021448 25.8632708,425.648794 24.9142091,426.002681 Z M27.6327078,423.686327 C27.230563,423.412869 26.7640751,423.171582 26.233244,422.994638 C26.3297587,422.463807 26.3941019,421.91689 26.4101877,421.337802 L28.3404826,421.337802 C28.308311,422.174263 28.0509383,422.978552 27.6327078,423.686327 Z M28.3565684,420.678284 L26.4262735,420.678284 C26.4101877,420.08311 26.3458445,419.504021 26.233244,418.957105 C26.7479893,418.764075 27.2144772,418.538874 27.616622,418.265416 C28.0348525,418.989276 28.2922252,419.809651 28.3565684,420.678284 Z M26.0884718,418.329759 C25.8310992,417.380697 25.4289544,416.576408 24.9302949,415.981233 C25.8632708,416.335121 26.6675603,416.946381 27.2627346,417.734584 C26.924933,417.975871 26.5227882,418.168901 26.0884718,418.329759 Z" id="planet"></path>
                </g>
            </g>
        </g>
    </g>
</svg>