<svg height="26" viewBox="0 0 15 26" width="15" xmlns="http://www.w3.org/2000/svg"><g fill="#f24841" stroke="#f24841"><path d="m12.87 1h-10.104c-.973 0-1.766.81-1.766 1.803v20.949c0 .994.793 1.803 1.767 1.803h10.102c.974 0 1.767-.81 1.767-1.803v-20.95c0-.992-.793-1.802-1.766-1.802zm-11.069 3.274h12.032v15.551h-12.031v-15.551zm.965-2.456h10.102c.532 0 .965.442.965.985v.652h-12.031v-.652c0-.543.433-.985.965-.985zm10.102 22.918h-10.101a.976.976 0 0 1 -.965-.984v-3.108h12.032v3.108a.976.976 0 0 1 -.965.984z" stroke-width=".5"/><path d="m7.818 21.053c-.885 0-1.604.734-1.604 1.637s.72 1.637 1.604 1.637c.885 0 1.604-.734 1.604-1.637s-.72-1.637-1.604-1.637zm0 2.456a.811.811 0 0 1 -.802-.819c0-.451.36-.818.802-.818s.802.367.802.818c0 .452-.36.819-.802.819z" stroke-width=".3"/></g></svg>