<svg xmlns="http://www.w3.org/2000/svg" width="33" height="33" viewBox="0 0 33 33">
    <path fill="#FFF" fill-rule="evenodd" d="M16.5 33C7.387 33 0 25.613 0 16.5S7.387 0 16.5 0 33 7.387 33 16.5 25.613 33 16.5 33zm9.79-11.02a1.378 1.378 0 0 0-.07-.13c-.357-.633-1.04-1.41-2.05-2.33l-.032-.032c-.48-.439-.77-.727-.892-.875-.222-.28-.272-.565-.15-.854.086-.218.408-.678.966-1.38.294-.373.526-.671.698-.896 1.239-1.616 1.776-2.65 1.611-3.099l-.064-.105c-.043-.063-.154-.121-.333-.174-.179-.053-.408-.061-.687-.026l-3.093.02a.409.409 0 0 0-.215.006l-.14.032-.053.026-.043.032a.474.474 0 0 0-.118.11.72.72 0 0 0-.107.185c-.337.85-.72 1.64-1.15 2.371a22.4 22.4 0 0 1-.73 1.133c-.222.32-.408.556-.558.706a3.87 3.87 0 0 1-.408.364c-.122.092-.215.13-.28.116a7.994 7.994 0 0 1-.182-.042.706.706 0 0 1-.241-.258 1.14 1.14 0 0 1-.124-.411 4.45 4.45 0 0 1-.038-.427 8.753 8.753 0 0 1 .006-.506c.007-.218.01-.366.01-.443 0-.267.006-.557.017-.87.01-.312.02-.56.027-.743.007-.182.01-.376.01-.58 0-.203-.012-.363-.037-.479a1.62 1.62 0 0 0-.113-.337.571.571 0 0 0-.22-.253 1.254 1.254 0 0 0-.36-.143c-.38-.084-.862-.13-1.45-.137-1.331-.014-2.187.07-2.566.254-.15.077-.286.182-.408.316-.129.154-.147.239-.054.253.43.063.734.214.913.453l.064.126c.05.092.1.253.15.485.05.232.083.488.097.77.036.512.036.952 0 1.317-.035.365-.07.65-.102.854-.032.204-.08.369-.145.495a2.079 2.079 0 0 1-.129.232.183.183 0 0 1-.053.053.818.818 0 0 1-.29.052c-.1 0-.222-.049-.365-.147a2.559 2.559 0 0 1-.446-.406 5.427 5.427 0 0 1-.52-.722c-.194-.31-.394-.675-.602-1.096l-.172-.306a26.106 26.106 0 0 1-.44-.859 16.41 16.41 0 0 1-.494-1.09.696.696 0 0 0-.258-.338l-.053-.032a.74.74 0 0 0-.172-.09 1.156 1.156 0 0 0-.247-.068l-2.943.021c-.3 0-.504.067-.612.2l-.043.064a.336.336 0 0 0-.032.168c0 .078.021.173.064.285.43.99.897 1.946 1.402 2.867.504.92.943 1.662 1.315 2.224a26.26 26.26 0 0 0 1.138 1.591c.387.5.643.819.768.96.126.14.224.245.296.316l.268.252c.172.17.424.371.757.606.333.236.702.468 1.106.696.405.229.875.415 1.412.559a4.97 4.97 0 0 0 1.568.174h1.235c.25-.021.44-.099.57-.232l.042-.053a.692.692 0 0 0 .08-.195c.026-.087.038-.184.038-.29a3.41 3.41 0 0 1 .07-.816 2.12 2.12 0 0 1 .183-.548 1.349 1.349 0 0 1 .413-.464.708.708 0 0 1 .086-.037c.172-.056.374-.002.607.164.233.165.45.369.655.611.204.243.45.515.735.817.287.302.537.527.752.674l.215.127c.143.084.33.162.558.232.23.07.43.088.602.052l2.749-.042c.272 0 .483-.044.633-.132.15-.087.24-.184.269-.29a.802.802 0 0 0 .005-.358 1.304 1.304 0 0 0-.075-.28z"/>
</svg>
