<svg height="33" viewBox="0 0 34 33" width="34" xmlns="http://www.w3.org/2000/svg"><g fill="none" fill-rule="evenodd" transform="translate(.2)"><circle cx="16.5" cy="16.5" fill="#fff" r="16.5"/><path d="m24.302 10.725c.246 0 .448.203.448.451v11.04a.451.451 0 0 1 -.448.452h-14.786a.446.446 0 0 1 -.441-.452v-11.04c0-.248.195-.451.441-.451zm-7.393 6.216 3.353-2.924 2.742-2.396h-12.189l2.741 2.396zm3.933-2.25-3.636 3.178a.447.447 0 0 1 -.587.006l-3.643-3.184-3.012-2.631v9.273l3.012-2.638 1.69-1.468a.432.432 0 0 1 .624.044.447.447 0 0 1 -.045.63l-1.689 1.474-2.741 2.39h12.19l-2.742-2.39-1.69-1.475a.452.452 0 0 1 -.044-.629.433.433 0 0 1 .624-.044l1.69 1.468 3.019 2.638v-9.273l-3.02 2.63z" fill="#2c2c2a" fill-rule="nonzero" stroke="#2c2c2a" stroke-width=".4"/></g></svg>