<svg xmlns="http://www.w3.org/2000/svg" width="29" height="20" viewBox="0 0 29 20">
    <g fill="none" fill-rule="nonzero">
        <path fill="#FFF" stroke="#2C2C2A" stroke-width=".3" d="M27.48 14.017h-1.038V1.556a.52.52 0 0 0-.519-.52H3.077a.52.52 0 0 0-.52.52v12.461H1.52a.52.52 0 0 0-.519.52v4.153c0 .287.233.52.52.52h25.96a.52.52 0 0 0 .52-.52v-4.153a.52.52 0 0 0-.52-.52zm-5.21-1.557h3.134v1.557h-3.116V12.98c0-.175-.006-.348-.017-.52zm-.138-1.039a7.72 7.72 0 0 0-.495-1.558h1.204v1.558h-.71zm1.747 0V9.863h1.525v1.558h-1.525zm1.525-5.192h-2.596V4.67h2.596V6.23zm-3.375-4.154h3.375v1.558h-3.375V2.075zm0 5.192h3.375v1.558h-3.375V7.267zm-.26-1.038h-3.115V4.67h3.115V6.23zm-4.904 3.556a.52.52 0 0 0-1.004-.09c-.003.007-.242.688-.868.688-.398 0-.86-.993-1.027-1.68a.52.52 0 0 0-.969-.11c-.045.09-1.093 2.208-1.093 4.126 0 .48.162.927.438 1.298H7.75V12.98a6.758 6.758 0 0 1 6.75-6.75 6.758 6.758 0 0 1 6.75 6.75v1.038h-4.593c.277-.371.44-.818.44-1.298 0-1.408-.222-2.872-.232-2.934zm-.807 2.934c0 .716-.7 1.298-1.558 1.298-.859 0-1.558-.582-1.558-1.298 0-.85.253-1.78.502-2.49.522.981 1.126 1.192 1.55 1.192.391 0 .718-.114.984-.283.043.475.08 1.037.08 1.581zM6.712 6.23V4.67h2.596V6.23H6.712zm1.298 2.45V7.267H9.21c-.454.42-.858.895-1.201 1.412zm2.336-4.008h3.116v.589a7.732 7.732 0 0 0-2.844.969h-.272V4.67zm4.154.52v-.52h3.115v1.17a7.744 7.744 0 0 0-3.115-.65zm5.289 2.076h1.201V8.68a7.85 7.85 0 0 0-1.201-1.412zm-2.433-5.192h3.634v1.558h-3.634V2.075zm-4.673 0h3.634v1.558h-3.634V2.075zm-4.673 0h3.634v1.558H8.01V2.075zm-4.414 0h3.375v1.558H3.596V2.075zm0 2.596h2.077V6.23H3.596V4.67zm0 2.596h3.375v1.558H3.596V7.267zm3.767 2.596a7.724 7.724 0 0 0-.495 1.558h-.676V9.863h1.17zm-3.767 0h1.558v1.558H3.596V9.863zm0 2.597H6.73a7.84 7.84 0 0 0-.017.519v1.038H3.596V12.46zm4.673 4.68c6.68 0 16.36-.005 18.693-.007v1.038H2.038v-1.035c.5.003 1.413.003 3.116.004a.52.52 0 0 0 0-1.039c-1.695 0-2.625-.002-3.116-.003v-1.042h24.924v1.039c-2.332.001-12.012.007-18.693.007a.52.52 0 0 0 0 1.038z"/>
        <path fill="#000" d="M6.712 16.102a.52.52 0 1 0 .519.52v-.001a.519.519 0 0 0-.52-.52z"/>
    </g>
</svg>
