<svg height="18" viewBox="0 0 18 18" width="18" xmlns="http://www.w3.org/2000/svg"><path d="m14.6880368 8.25c3.5530675 0 6.4380368 2.876117 6.4380368 6.4352168 0 1.5936268-.5845859 3.0582457-1.541181 4.1889619l.2657209.2656045h.7743865l4.95 4.9478318-1.4880368 1.487385-4.95-4.9554205v-.781636l-.2657209-.2656045c-1.1312116.9561761-2.5964724 1.5405059-4.1907975 1.5405059-3.5530675 0-6.4304448-2.8761169-6.4304448-6.4276281 0-3.5515111 2.8773773-6.4352168 6.4380368-6.4352168zm0 1.9806505c-2.475 0-4.4565184 1.9806504-4.4565184 4.4545663s1.9815184 4.4545664 4.4565184 4.4545664 4.4565184-1.9806505 4.4565184-4.4545664-1.9815184-4.4545663-4.4565184-4.4545663z" fill="#d0d0d0" transform="translate(-8 -8)"/></svg>