<svg xmlns="http://www.w3.org/2000/svg" width="15" height="26" viewBox="0 0 15 26">
    <g fill="#F24841" fill-rule="nonzero" stroke="#F24841">
        <path stroke-width=".5" d="M12.87 1H2.766C1.793 1 1 1.81 1 2.803v20.949c0 .994.793 1.803 1.767 1.803h10.102c.974 0 1.767-.81 1.767-1.803V2.802C14.636 1.81 13.843 1 12.87 1zM1.801 4.274h12.032v15.551H1.802V4.274zm.965-2.456h10.102c.532 0 .965.442.965.985v.652H1.802v-.652c0-.543.433-.985.965-.985zm10.102 22.918H2.767a.976.976 0 0 1-.965-.984v-3.108h12.032v3.108a.976.976 0 0 1-.965.984z"/>
        <path stroke-width=".3" d="M7.818 21.053c-.885 0-1.604.734-1.604 1.637s.72 1.637 1.604 1.637c.885 0 1.604-.734 1.604-1.637s-.72-1.637-1.604-1.637zm0 2.456a.811.811 0 0 1-.802-.819c0-.451.36-.818.802-.818.442 0 .802.367.802.818 0 .452-.36.819-.802.819z"/>
    </g>
</svg>
