<svg xmlns="http://www.w3.org/2000/svg" width="46" height="72" viewBox="0 0 46 72">
    <g fill="#F24841" fill-rule="nonzero">
        <path d="M23 0C10.318 0 0 10.764 0 24c0 12.732 20.907 45.921 21.801 47.325A1.43 1.43 0 0 0 23 72c.483 0 .931-.258 1.199-.675C25.09 69.921 46 36.732 46 24 46 10.764 35.682 0 23 0z" opacity=".15"/>
        <path d="M23.5 8C13.851 8 6 16.073 6 26c0 9.549 15.908 34.44 16.588 35.494.201.313.545.506.912.506s.709-.193.912-.506C25.09 60.44 41 35.549 41 26c0-9.927-7.851-18-17.5-18z" opacity=".182"/>
        <path d="M23.5 17C17.71 17 13 21.784 13 27.667c0 5.658 9.545 20.409 9.953 21.033.12.185.327.3.547.3.22 0 .425-.115.547-.3C24.454 48.076 34 33.325 34 27.667 34 21.784 29.29 17 23.5 17zm.5 16c-2.757 0-5-2.243-5-5s2.243-5 5-5 5 2.243 5 5-2.243 5-5 5z"/>
    </g>
</svg>
