<svg height="33" viewBox="0 0 34 33" width="34" xmlns="http://www.w3.org/2000/svg"><g fill="none" fill-rule="evenodd" transform="translate(.4)"><circle cx="16.5" cy="16.5" fill="#fff" r="16.5"/><path d="m23.539 15.548v-2.19h-1.46v2.19h-2.19v1.46h2.19v2.19h1.46v-2.19h2.19v-1.46zm-5.62 2.481-.803-.583c-.291-.22-.583-.511-.583-1.022s.365-.949.73-1.168c.948-.73 1.897-1.532 1.897-3.138 0-1.533-.949-2.408-1.46-2.846h1.241l.876-1.022h-4.525c-3.211 0-4.817 2.043-4.817 4.233 0 1.678 1.314 3.503 3.65 3.503h.583c-.073.219-.292.584-.292.949 0 .73.292 1.021.657 1.46-1.022.072-2.92.291-4.306 1.167-1.314.803-1.678 1.898-1.678 2.7 0 1.679 1.532 3.284 4.816 3.284 3.941 0 5.839-2.189 5.839-4.305 0-1.533-.803-2.336-1.825-3.212zm-5.546-6.64c0-1.606.948-2.336 1.97-2.336 1.898 0 2.92 2.554 2.92 4.014 0 1.897-1.533 2.262-2.117 2.262-1.825 0-2.773-2.262-2.773-3.94zm2.627 13.135c-2.408 0-3.94-1.095-3.94-2.7 0-1.606 1.459-2.117 1.897-2.336.948-.292 2.189-.365 2.408-.365h.51c1.752 1.24 2.482 1.752 2.482 2.92 0 1.386-1.386 2.48-3.357 2.48z" fill="#2c2c2a" fill-rule="nonzero"/></g></svg>