<?xml version="1.0" encoding="UTF-8"?>
<svg width="46px" height="72px" viewBox="0 0 46 72" version="1.1" xmlns="http://www.w3.org/2000/svg" xmlns:xlink="http://www.w3.org/1999/xlink">
    <!-- Generator: Sketch 51.1 (57501) - http://www.bohemiancoding.com/sketch -->
    <title>Локация метка Copy</title>
    <desc>Created with Sketch.</desc>
    <defs></defs>
    <g id="1440" stroke="none" stroke-width="1" fill="none" fill-rule="evenodd">
        <g id="Catalog" transform="translate(-1105.000000, -2212.000000)" fill="#FFFFFF" fill-rule="nonzero">
            <g id="Магазины" transform="translate(350.000000, 1878.000000)">
                <g id="Карта" transform="translate(360.000000, 162.000000)">
                    <g id="Локация-метка-Copy" transform="translate(395.000000, 172.000000)">
                        <path d="M23,0 C10.3183964,0 0,10.7639905 0,24 C0,36.7320418 20.9070018,69.9210124 21.8010956,71.3250112 C22.0656258,71.7420214 22.5170309,72 23,72 C23.4829691,72 23.9314687,71.7420214 24.1989044,71.3250112 C25.0900927,69.9210124 46,36.7320418 46,24 C46,10.7639905 35.6816036,0 23,0 Z" id="Shape-Copy-4" opacity="0.150079257"></path>
                        <path d="M23.5,8 C13.8509538,8 6,16.0729929 6,26 C6,35.5490313 21.9075014,60.4407593 22.5877901,61.4937584 C22.7890631,61.8065161 23.1325235,62 23.5,62 C23.8674765,62 24.2087262,61.8065161 24.4122099,61.4937584 C25.0902879,60.4407593 41,35.5490313 41,26 C41,16.0729929 33.1490462,8 23.5,8 Z" id="Shape-Copy-4" opacity="0.181725543"></path>
                        <path d="M23.5,17 C17.7105723,17 13,21.7839958 13,27.6666667 C13,33.3253519 22.5445008,48.0760055 22.9526741,48.700005 C23.0734379,48.8853429 23.2795141,49 23.5,49 C23.7204859,49 23.9252357,48.8853429 24.0473259,48.700005 C24.4541727,48.0760055 34,33.3253519 34,27.6666667 C34,21.7839958 29.2894277,17 23.5,17 Z M24,33 C21.2428208,33 19,30.7571136 19,28 C19,25.2428864 21.2428864,23 24,23 C26.7571136,23 29,25.2428864 29,28 C29,30.7571136 26.7571136,33 24,33 Z" id="Shape-Copy-4"></path>
                    </g>
                </g>
            </g>
        </g>
    </g>
</svg>