<svg height="33" viewBox="0 0 33 33" width="33" xmlns="http://www.w3.org/2000/svg"><g fill="none" fill-rule="evenodd"><circle cx="16.5" cy="16.5" fill="#fff" r="16.5"/><g fill="#2c2c2a" fill-rule="nonzero" stroke="#fff" stroke-width=".6"><path d="m12.788 18.975c-.573 0-1.06.2-1.462.602-.4.4-.601.888-.601 1.46 0 .574.2 1.06.601 1.461a1.99 1.99 0 0 0 1.462.602c.572 0 1.06-.2 1.46-.602.401-.4.602-.887.602-1.46 0-.574-.2-1.06-.601-1.461a1.989 1.989 0 0 0 -1.461-.602z"/><path d="m17.145 16.679a8.954 8.954 0 0 0 -2.623-1.839 9.077 9.077 0 0 0 -3.098-.815h-.051a.59.59 0 0 0 -.435.172.597.597 0 0 0 -.213.476v1.367c0 .17.056.314.167.436s.251.19.42.203a6.298 6.298 0 0 1 3.965 1.868 6.3 6.3 0 0 1 1.868 3.965c.013.17.08.31.202.42a.621.621 0 0 0 .436.168h1.367c.196 0 .354-.07.476-.213a.614.614 0 0 0 .172-.486 9.087 9.087 0 0 0 -.815-3.1 8.956 8.956 0 0 0 -1.838-2.622z"/><path d="m23.553 17.437a13.965 13.965 0 0 0 -2.928-4.238 13.962 13.962 0 0 0 -4.238-2.929 13.82 13.82 0 0 0 -4.995-1.195h-.03a.596.596 0 0 0 -.438.18.589.589 0 0 0 -.199.458v1.424c0 .166.058.31.174.433a.596.596 0 0 0 .424.194c1.427.087 2.783.426 4.068 1.017a11.45 11.45 0 0 1 3.347 2.305 11.452 11.452 0 0 1 2.305 3.347c.591 1.285.926 2.641 1.006 4.07a.597.597 0 0 0 .194.423c.123.116.27.174.444.174h1.424a.589.589 0 0 0 .458-.2.576.576 0 0 0 .18-.467 13.822 13.822 0 0 0 -1.196-4.996z"/></g></g></svg>