<svg xmlns="http://www.w3.org/2000/svg" xmlns:xlink="http://www.w3.org/1999/xlink" width="207" height="80" viewBox="0 0 207 80">
    <defs>
        <path id="a" d="M.028.065h29.899v41.89H.028z"/>
    </defs>
    <g fill="none" fill-rule="evenodd">
        <path fill="#FFF" d="M50.267 34.678l-4.25 9.421c-1.472-1.044-3.13-1.827-4.953-2.35-1.834-.522-3.8-.783-5.908-.783-4.92 0-9.267 1.371-13.03 4.112-3.776 2.742-6.464 6.484-8.075 11.228-1.553 4.569-1.522 8.202.092 10.9 1.624 2.698 4.571 4.047 8.864 4.047.897 0 1.755-.043 2.542-.13a18.73 18.73 0 0 0 2.28-.38l3.22-9.477h-6.942l2.906-8.55h18.1l-8.58 25.25a62.382 62.382 0 0 1-7.902 1.523 63.878 63.878 0 0 1-8.023.511c-8.769 0-14.752-1.99-17.955-5.962-3.203-3.97-3.504-9.769-.913-17.395 2.595-7.637 6.912-13.566 12.97-17.809 6.044-4.232 13.241-6.353 21.578-6.353 2.497 0 4.91.184 7.24.554 2.324.381 4.572.925 6.74 1.643zm29.528 10.205l-3.972 9.91c-.399-.195-.87-.337-1.399-.435-.54-.098-1.195-.141-1.952-.141-2.724 0-5.078.88-7.06 2.643-1.984 1.763-3.559 4.363-4.72 7.779L55.83 78.956H44.41L55.81 45.405h10.185l-2.174 6.397c2.004-2.492 4.045-4.33 6.127-5.527 2.068-1.186 4.25-1.784 6.531-1.784.584 0 1.625.12 3.1.359l.216.033zm4.09.522h11.418l-11.399 33.55H72.487l11.399-33.55zM89.12 30h11.418l-3.172 9.334H85.948L89.119 30zm19.967 0h11.417l-16.632 48.956H92.453L109.086 30zm19.966 0h11.418l-16.633 48.956H112.42L129.052 30zm39.277 12.402l-9.336 27.48h5.19c4.227 0 7.888-1.196 11.008-3.6 3.12-2.405 5.423-5.81 6.927-10.237 1.486-4.374 1.432-7.746-.156-10.107-1.598-2.36-4.626-3.536-9.07-3.536h-4.563zm-9.094-8.747h15.775c4.108 0 7.468.262 10.07.784 2.601.522 4.59 1.316 5.973 2.404 2.562 2.1 4.122 4.765 4.704 7.985.571 3.22.136 6.952-1.309 11.205-1.59 4.679-3.814 8.65-6.668 11.924-2.853 3.275-6.415 5.962-10.696 8.061-2.121 1.023-4.647 1.774-7.573 2.241-2.927.468-6.713.697-11.384.697h-14.283l15.39-45.3zm-13.574-.55h7.039l-6.103 17.852h-7.04l6.104-17.851z"/>
        <g transform="translate(57)">
            <mask id="b" fill="#fff">
                <use xlink:href="#a"/>
            </mask>
            <path fill="#F24841" d="M24.005 38.157c-2.692-11.873 10.13-19.826 4.457-33.327-2.424 11.783-14.988 19.77-4.457 33.327m-10.513 3.797C11.02 27.485 24.972 17.035 19.095.065c-1.339 14.697-16.902 25.758-5.603 41.89m-9.721-3.798C2.06 28.155 12.25 22.649 7.644 9.199 4.814 19.992-5.4 27.186 3.77 38.157" mask="url(#b)"/>
        </g>
        <path fill="#FFF" d="M199.285 34.317v-5.894h2.64c.531 0 .935.053 1.21.159.277.105.497.292.662.56.165.267.247.563.247.887 0 .419-.137.771-.41 1.058-.274.287-.695.468-1.266.546.209.1.367.198.475.294.23.209.448.47.652.785l1.03 1.605h-.984l-.788-1.226a10.862 10.862 0 0 0-.567-.814 1.797 1.797 0 0 0-.4-.394 1.212 1.212 0 0 0-.36-.156 2.472 2.472 0 0 0-.438-.028h-.913v2.618h-.79zm.79-3.293h1.692c.36 0 .64-.037.843-.111a.877.877 0 0 0 .46-.354.948.948 0 0 0 .159-.528.878.878 0 0 0-.305-.69c-.204-.179-.526-.268-.965-.268h-1.884v1.951zm1.388-4.927c1.506 0 2.87.604 3.858 1.582a5.354 5.354 0 0 1 1.598 3.817c0 1.49-.61 2.84-1.598 3.818a5.467 5.467 0 0 1-3.858 1.581 5.468 5.468 0 0 1-3.858-1.581 5.354 5.354 0 0 1-1.598-3.818c0-1.49.611-2.84 1.598-3.817a5.467 5.467 0 0 1 3.858-1.582zm3.258 2.176a4.616 4.616 0 0 0-3.258-1.336c-1.272 0-2.424.51-3.258 1.336a4.521 4.521 0 0 0 0 6.447 4.617 4.617 0 0 0 3.258 1.335c1.272 0 2.424-.51 3.258-1.335a4.521 4.521 0 0 0 1.349-3.224 4.52 4.52 0 0 0-1.35-3.223zM30.084 11.253L31 9.981C29.804 9.334 28.381 9 26.726 9c-1.913 0-3.442.376-4.609 1.127-1.187.75-1.883 1.752-2.11 3.025-.072.396-.07.751.002 1.064.073.313.196.584.392.814.21.271.469.5.783.668.314.166.678.292 1.072.375l2.257.48c.934.188 1.602.417 2.005.688.403.272.557.73.441 1.377a3.002 3.002 0 0 1-1.369 2.003c-.393.272-.881.48-1.466.626-.585.147-1.31.23-2.191.23-.409 0-.792-.02-1.128-.063-.337-.041-.673-.083-.984-.146a4.855 4.855 0 0 1-.92-.271c-.3-.125-.617-.271-.953-.438L17 21.894c.332.188.646.355.964.5.317.147.639.272.99.356.35.083.726.146 1.127.187.4.042.87.063 1.386.063 1.01 0 1.974-.104 2.893-.313a6.633 6.633 0 0 0 2.455-1.106c1.185-.855 1.907-2.003 2.165-3.442.07-.397.07-.751-.003-1.064a1.916 1.916 0 0 0-.413-.814c-.263-.334-.623-.605-1.058-.814a7.091 7.091 0 0 0-1.501-.5l-2.132-.46c-.766-.166-1.29-.354-1.594-.584-.303-.23-.407-.605-.314-1.127.071-.396.217-.73.438-1 .22-.272.476-.502.79-.69.363-.229.801-.396 1.314-.5a8.29 8.29 0 0 1 1.66-.146c.71 0 1.365.062 1.987.188.623.125 1.273.333 1.934.605l-.004.02z"/>
        <path fill="#FFF" d="M35.846 12.464c1.044 0 1.738.25 2.104.753.314.439.401 1.129.244 2.05a8.839 8.839 0 0 1-.684 2.216 6.126 6.126 0 0 1-1.3 1.861c-.368.356-.79.67-1.262.92-.473.251-1.088.377-1.826.377-.634 0-1.112-.084-1.41-.251a2.08 2.08 0 0 1-.726-.67 1.864 1.864 0 0 1-.264-.857 4.349 4.349 0 0 1 .055-1.046 9.251 9.251 0 0 1 .737-2.404 5.264 5.264 0 0 1 1.515-1.924c.354-.272.741-.502 1.183-.69.441-.189.988-.272 1.643-.272l-.01-.063zm3.533-.188c-.28-.398-.677-.711-1.191-.941-.514-.23-1.172-.335-1.95-.335-.757 0-1.472.105-2.125.335-.654.23-1.26.543-1.799.94a7.656 7.656 0 0 0-2.174 2.427 8.928 8.928 0 0 0-1.044 2.885 5.894 5.894 0 0 0-.053 1.757c.071.544.238 1.004.522 1.38.28.398.678.711 1.192.941.514.23 1.15.335 1.909.335.88 0 1.68-.125 2.398-.376a6.253 6.253 0 0 0 1.974-1.13 8.098 8.098 0 0 0 1.918-2.363c.48-.9.798-1.798.95-2.698.221-1.296.051-2.342-.513-3.116l-.014-.041zM46.884 22.612L50 12h-1.63l-2.485 8.39c-1.098.777-2.193 1.165-3.286 1.165-.747 0-1.277-.173-1.588-.518-.31-.345-.396-.906-.273-1.704.023-.15.047-.302.092-.474l.138-.518L42.849 12h-1.63l-1.846 6.24c-.075.238-.13.475-.183.69-.053.216-.086.432-.116.626-.183 1.183-.028 2.042.48 2.603.507.56 1.365.841 2.592.841h.326l3.069-1.25.162 1.056 1.18-.194zM51.639 23L56 9h-1.658L50 23zM105.084 11.253L106 9.981c-1.196-.647-2.619-.981-4.274-.981-1.913 0-3.442.376-4.609 1.127-1.187.75-1.883 1.752-2.11 3.025-.072.396-.07.751.002 1.064.073.313.196.584.392.814.21.271.469.5.783.668.314.166.678.292 1.072.375l2.257.48c.934.188 1.602.417 2.005.688.403.272.557.73.441 1.377a3.002 3.002 0 0 1-1.37 2.003c-.392.272-.88.48-1.465.626-.585.147-1.31.23-2.191.23-.409 0-.792-.02-1.128-.063-.337-.041-.673-.083-.984-.146a4.855 4.855 0 0 1-.92-.271 15.7 15.7 0 0 1-.952-.438L92 21.894c.332.188.646.355.964.5.317.147.639.272.99.356.35.083.726.146 1.127.187.4.042.87.063 1.386.063 1.01 0 1.974-.104 2.893-.313a6.632 6.632 0 0 0 2.455-1.106c1.185-.855 1.907-2.003 2.165-3.442a2.64 2.64 0 0 0-.003-1.064 1.918 1.918 0 0 0-.413-.814c-.263-.334-.623-.605-1.058-.814a7.091 7.091 0 0 0-1.501-.5l-2.132-.46c-.766-.166-1.29-.354-1.594-.584-.303-.23-.407-.605-.314-1.127a2.16 2.16 0 0 1 .438-1c.22-.272.476-.502.79-.69.363-.229.801-.396 1.314-.5a8.291 8.291 0 0 1 1.66-.146c.71 0 1.365.062 1.987.188.623.125 1.273.333 1.934.605l-.004.02z"/>
        <path fill="#FFF" d="M108.015 9l-1.46 3.046-1.801.173-.404 1.124 1.725.173-1.73 5.58c-.128.411-.23.796-.29 1.164-.08.497-.07.929.015 1.27.085.347.241.627.468.843.227.217.525.368.87.476.345.108.74.151 1.184.151a7.25 7.25 0 0 0 1.518-.173c.501-.108.972-.28 1.394-.518l-.074-1.163c-.363.13-.702.234-1.015.298a4.837 4.837 0 0 1-.984.108c-.625 0-1.07-.108-1.335-.342-.263-.237-.354-.67-.253-1.296.045-.277.107-.536.19-.796l1.74-5.646 3.927-.237.3-1.232h-3.746l.875-2.913-1.114-.09z"/>
        <path fill="#FFF" d="M115.722 16.008l-3.413.02c.475-1.236 1.097-2.137 1.863-2.681.766-.545 1.69-.818 2.772-.818.857 0 1.465.147 1.804.44.338.294.467.734.368 1.32-.06.357-.192.65-.37.86-.179.21-.432.377-.739.502-.307.126-.648.21-1.046.273-.399.063-.83.084-1.3.084h.06zm-3.7 1.11l2.721.21h.919c.632 0 1.232-.042 1.82-.147.59-.105 1.129-.272 1.6-.524a3.883 3.883 0 0 0 1.212-1.006c.336-.419.544-.921.647-1.53.18-1.068-.052-1.864-.702-2.367-.65-.503-1.607-.754-2.852-.754-.94 0-1.825.168-2.634.482a6.687 6.687 0 0 0-2.2 1.425 7.596 7.596 0 0 0-1.664 2.346c-.394.88-.662 1.74-.804 2.578-.216 1.278-.02 2.283.588 3.038.607.754 1.707 1.131 3.32 1.131.775 0 1.5-.063 2.178-.21a11.515 11.515 0 0 0 1.937-.586l-.015-1.236c-.672.23-1.293.398-1.878.482-.586.083-1.165.125-1.757.125-1 0-1.744-.188-2.231-.565-.488-.378-.636-1.069-.465-2.075a5.48 5.48 0 0 1 .185-.733l.076-.084zM127.722 16.008l-3.413.02c.475-1.236 1.097-2.137 1.863-2.681.766-.545 1.69-.818 2.772-.818.857 0 1.465.147 1.803.44.339.294.468.734.369 1.32-.06.357-.192.65-.37.86-.179.21-.432.377-.739.502-.307.126-.648.21-1.046.273-.399.063-.83.084-1.3.084h.06zm-3.7 1.11l2.721.21h.919c.632 0 1.232-.042 1.82-.147.59-.105 1.129-.272 1.6-.524a3.883 3.883 0 0 0 1.212-1.006c.336-.419.544-.921.647-1.53.18-1.068-.052-1.864-.702-2.367-.65-.503-1.607-.754-2.852-.754-.94 0-1.825.168-2.634.482a6.689 6.689 0 0 0-2.2 1.425 7.6 7.6 0 0 0-1.664 2.346 10.68 10.68 0 0 0-.804 2.578c-.216 1.278-.02 2.283.588 3.038.607.754 1.707 1.131 3.32 1.131.775 0 1.5-.063 2.178-.21a11.515 11.515 0 0 0 1.937-.586l-.015-1.236c-.672.23-1.293.398-1.878.482a12.31 12.31 0 0 1-1.757.125c-1 0-1.744-.188-2.231-.565-.488-.378-.636-1.069-.465-2.075.035-.21.098-.46.185-.733l.076-.084zM132.639 23L137 9h-1.658L131 23z"/>
    </g>
</svg>
