<?xml version="1.0" encoding="UTF-8"?>
<svg width="132px" height="132px" viewBox="0 0 132 132" version="1.1" xmlns="http://www.w3.org/2000/svg" xmlns:xlink="http://www.w3.org/1999/xlink">
    <!-- Generator: Sketch 51.1 (57501) - http://www.bohemiancoding.com/sketch -->
    <title>star</title>
    <desc>Created with Sketch.</desc>
    <defs></defs>
    <g id="1440" stroke="none" stroke-width="1" fill="none" fill-rule="evenodd">
        <g id="Catalog" transform="translate(-430.000000, -1568.000000)">
            <g id="Отзывы" transform="translate(369.000000, 1500.000000)">
                <g id="star" transform="translate(62.000000, 69.000000)">
                    <circle id="Oval-3" fill="#FFFFFF" cx="65" cy="66.6883117" r="58.2467532"></circle>
                    <path d="M65,119.025974 C93.9052927,119.025974 117.337662,95.5936044 117.337662,66.6883117 C117.337662,37.7830189 93.9052927,14.3506494 65,14.3506494 C36.0947073,14.3506494 12.6623377,37.7830189 12.6623377,66.6883117 C12.6623377,95.5936044 36.0947073,119.025974 65,119.025974 Z" id="Oval-3" stroke="#2C2C2A" stroke-linecap="round" stroke-linejoin="round" stroke-dasharray="3,4"></path>
                    <path d="M65,130 C100.898509,130 130,100.898509 130,65 C130,29.1014913 100.898509,0 65,0 C29.1014913,0 0,29.1014913 0,65 C0,100.898509 29.1014913,130 65,130 Z" id="Oval-3-Copy" stroke="#FFFFFF" stroke-linecap="round" stroke-linejoin="round" stroke-dasharray="3,4"></path>
                    <polygon id="Star" fill="#F24841" points="65.2721878 84.5279586 47.3655884 93.942015 50.7854445 74.0027236 36.2987013 59.8816389 56.3188881 56.9725355 65.2721878 38.8311688 74.2254875 56.9725355 94.2456742 59.8816389 79.758931 74.0027236 83.1787872 93.942015"></polygon>
                    <path d="M66.6806235,55.717388 C66.4398904,55.7408171 66.2256088,55.8781843 66.1058124,56.0858759 L56.660268,72.2993431 C56.5874954,72.4224589 56.5524181,72.563793 56.5592877,72.7062151 L56.8078546,77.1280698 C56.822667,77.3725645 56.9594067,77.593815 57.1727412,77.7184712 C57.3860756,77.8431274 57.6481319,77.8549027 57.8720319,77.7498931 L62.0976702,75.7846244 C62.2347259,75.7199815 62.348547,75.6155272 62.4239143,75.485228 L71.8694587,59.2717608 C71.9674315,59.1017787 71.9930095,58.9002765 71.940558,58.7116443 C71.8881064,58.5230121 71.7619285,58.3627258 71.5898209,58.2660959 L67.1156157,55.80951 C66.9834778,55.7357818 66.8317272,55.7036443 66.6806235,55.717388 Z M67.022403,57.4523518 L70.1993995,59.1949925 L69.3915569,60.576822 L66.2145604,58.8341814 L67.022403,57.4523518 Z M65.4688596,60.1162122 L68.645856,61.8588528 L61.6160717,73.9268313 L58.4934493,72.1074223 L65.4688596,60.1162122 Z M58.1050634,73.5967275 L60.4198432,74.940173 L58.2371146,75.9535147 L58.1050634,73.5967275 Z M64.9328871,73.8961239 C64.6664405,73.9097931 64.4276183,74.062924 64.3064005,74.2978221 C64.1851828,74.5327201 64.1999899,74.8136901 64.345243,75.0348718 C64.4904961,75.2560535 64.7441225,75.3838362 65.0105642,75.3700755 L69.9819034,75.3700755 C70.2508299,75.3738343 70.5009719,75.2341954 70.636545,75.0046292 C70.7721182,74.7750631 70.7721182,74.4911364 70.636545,74.2615702 C70.5009719,74.0320041 70.2508299,73.8923652 69.9819034,73.8961239 L65.0105642,73.8961239 C64.9846894,73.8947904 64.9587619,73.8947904 64.9328871,73.8961239 Z M62.6957844,76.3527099 C62.3052897,76.3728539 61.9685842,76.7421402 61.9889221,77.1280698 C62.0092599,77.5139749 62.3829739,77.84683 62.7734616,77.8266614 L73.2132738,77.8266614 C73.607237,77.8320659 73.9667424,77.4790791 73.9667424,77.0896857 C73.9667424,76.7002922 73.607237,76.3472071 73.2132738,76.3527099 L62.7734616,76.3527099 C62.7475927,76.3502533 62.7216533,76.3502533 62.6957844,76.3527099 Z" id="Shape" fill="#FFFFFF" fill-rule="nonzero"></path>
                </g>
            </g>
        </g>
    </g>
</svg>