<svg xmlns="http://www.w3.org/2000/svg" width="60" height="50" viewBox="0 0 60 50">
    <g fill="#F24841" fill-rule="nonzero">
        <path d="M41.697 44.479l-9.343-9.359a1.009 1.009 0 0 0-1.724.715v9.359a1.01 1.01 0 0 0 1.01 1.011h9.343a1.012 1.012 0 0 0 .714-1.727zm-9.048-.297v-5.905l5.896 5.905H32.65z"/>
        <path d="M59.033 14.459a1.01 1.01 0 0 0-.905-.563h-5.502v-3.33a1.01 1.01 0 0 0-1.01-1.01H24.394V1.03a1.01 1.01 0 0 0-1.01-1.011h-6.26a1.01 1.01 0 0 0-1.01 1.011v8.526H10.01V2.562a1.01 1.01 0 0 0-1.01-1.012H5.006a4.97 4.97 0 0 0-3.54 1.47A4.988 4.988 0 0 0 0 6.563v33.752c0 1.34.52 2.599 1.466 3.545a4.97 4.97 0 0 0 3.54 1.468H26.86v3.64a1.01 1.01 0 0 0 1.01 1.012h22.216a1.013 1.013 0 0 0 .714-1.727l-2.92-2.925h3.737a1.01 1.01 0 0 0 1.01-1.011V23.361h5.502c.384 0 .735-.219.905-.563a9.472 9.472 0 0 0 0-8.34zm-40.9 15.901h1.414a1.01 1.01 0 0 0 0-2.022h-1.414v-2.792h1.414a1.01 1.01 0 0 0 0-2.023h-1.414v-2.79h1.414a1.01 1.01 0 0 0 0-2.024h-1.414v-2.791h1.414a1.01 1.01 0 0 0 0-2.023h-1.414v-2.791h1.414a1.01 1.01 0 0 0 0-2.023h-1.414V6.289h1.414a1.01 1.01 0 0 0 0-2.022h-1.414V2.042h4.241v30.544h-4.241V30.36zM2.894 4.45a2.965 2.965 0 0 1 2.112-.876h2.985v31.729H5.006c-1.118 0-2.152.369-2.986.992V6.564c0-.798.31-1.55.874-2.115zm25.985 43.51V29.16l18.768 18.797H28.88zm21.727-4.652H45.86L28.583 26.004a1.009 1.009 0 0 0-1.724.715v16.588H5.006a2.965 2.965 0 0 1-2.112-.876 2.975 2.975 0 0 1-.874-2.115v-.04a2.992 2.992 0 0 1 2.986-2.951h3.995a1.01 1.01 0 0 0 1.01-1.012V11.58h6.102v22.018a1.01 1.01 0 0 0 1.01 1.011h6.26a1.01 1.01 0 0 0 1.01-1.011V11.579h26.213v2.317H38.882c-.2 0-.396.06-.563.171l-5.54 3.721a1.012 1.012 0 0 0 0 1.68l5.54 3.721c.167.112.362.172.563.172h11.724v19.946zM37.59 16.992l.768-.515a8.42 8.42 0 0 1 0 4.303l-.768-.516c.2-.518.303-1.07.303-1.636 0-.565-.104-1.118-.303-1.636zm-1.717 1.636c0 .154-.015.306-.042.455l-.677-.455.677-.454c.027.149.042.3.042.454zm17.323 2.71H40.298c.15-.558.254-1.126.31-1.698h13.03a7.38 7.38 0 0 1-.442 1.698zm-12.588-3.721c-.056-.572-.16-1.14-.31-1.698h12.898c.215.549.363 1.119.442 1.698h-13.03zm16.864 3.72h-2.14a9.507 9.507 0 0 0 0-5.418h2.14a7.45 7.45 0 0 1 0 5.419z"/>
    </g>
</svg>
