<svg xmlns="http://www.w3.org/2000/svg" width="60" height="52" viewBox="0 0 60 52">
    <g fill="#F24841" fill-rule="nonzero">
        <path d="M22.057 43.98a2.002 2.002 0 0 0-1.996 1.996c0 1.098.898 1.996 1.996 1.996a2.002 2.002 0 0 0 1.996-1.996 2.002 2.002 0 0 0-1.996-1.996zM48.006 43.98a2.002 2.002 0 0 0-1.996 1.996c0 1.098.898 1.996 1.996 1.996a2.002 2.002 0 0 0 1.996-1.996 2.002 2.002 0 0 0-1.996-1.996zM45.012 36.993h-1.996c-.599 0-.998.4-.998.998 0 .6.4.998.998.998h1.996c.599 0 .998-.399.998-.998 0-.598-.4-.998-.998-.998zM30.041 27.013H16.07c-.6 0-.998.399-.998.998s.399.998.998.998H30.04c.6 0 .998-.4.998-.998 0-.599-.399-.998-.998-.998zM11.078 17.032c3.294 0 5.989-2.694 5.989-5.988 0-3.293-2.695-5.988-5.989-5.988-3.293 0-5.988 2.695-5.988 5.988 0 3.294 2.695 5.988 5.988 5.988zm0-9.98a4.004 4.004 0 0 1 3.993 3.992 4.004 4.004 0 0 1-3.993 3.992 4.004 4.004 0 0 1-3.992-3.992 4.004 4.004 0 0 1 3.992-3.992z"/>
        <path d="M58.685 34.997l-3.853-1.58a.875.875 0 0 0-.053-.074l-2.481-9.923c-.3-1.397-1.497-2.296-2.895-2.296h-9.381V18.13a2.002 2.002 0 0 0-1.996-1.996h-17.43c.867-1.704 1.461-3.316 1.461-5.59 0-5.788-4.89-10.479-10.979-10.479C4.99.065.1 4.756 0 10.545c0 2.794.898 4.59 2.096 6.787.2.3.4.698.599 1.098 2.732 5.282 6.71 11.727 7.385 12.89V44.978c0 1.098.899 1.996 1.996 1.996h4.078c.479 2.823 2.95 4.99 5.903 4.99 2.954 0 5.424-2.167 5.903-4.99h14.143c.48 2.823 2.95 4.99 5.903 4.99 2.954 0 5.424-2.167 5.903-4.99h4.078a2.002 2.002 0 0 0 1.996-1.996v-8.084c0-.899-.5-1.597-1.298-1.897zm-20.66-12.974v.998a8.945 8.945 0 0 1-8.982 8.982H12.076v-.699c.573-.93 2.735-4.475 4.87-8.283h15.091c.6 0 .998-.4.998-.998 0-.6-.399-.998-.998-.998h-13.99c.46-.848.904-1.688 1.315-2.496l.163-.407.051-.092h18.45v3.993zm-34.033-5.59c-1.098-2.095-1.896-3.592-1.896-5.888 0-4.69 3.992-8.483 8.982-8.483 4.99 0 8.983 3.792 8.983 8.483 0 2.296-.799 3.693-1.896 5.889-.2.299-.4.698-.6 1.097-1.86 3.633-4.427 7.97-5.958 10.575l-.535.892c-1.4-2.4-4.388-7.281-6.48-11.466-.2-.4-.4-.7-.6-1.098zm18.065 33.535a4.004 4.004 0 0 1-3.992-3.992 4.004 4.004 0 0 1 3.992-3.992 4.004 4.004 0 0 1 3.992 3.992 4.004 4.004 0 0 1-3.992 3.992zm25.95 0a4.004 4.004 0 0 1-3.993-3.992 4.004 4.004 0 0 1 3.992-3.992 4.004 4.004 0 0 1 3.992 3.992 4.004 4.004 0 0 1-3.992 3.992zm9.98-4.99h-4.078a6.023 6.023 0 0 0-3.444-4.457c-.039-.018-.078-.037-.118-.054l-.076-.031a5.66 5.66 0 0 0-.196-.077l-.053-.02a5.864 5.864 0 0 0-.222-.075l-.048-.015a5.737 5.737 0 0 0-.23-.065l-.051-.013a5.881 5.881 0 0 0-.23-.054l-.058-.012a5.897 5.897 0 0 0-.224-.04l-.067-.011a5.859 5.859 0 0 0-.22-.028l-.075-.009a6.026 6.026 0 0 0-.222-.017l-.073-.005a6.043 6.043 0 0 0-.592 0l-.073.005c-.075.005-.149.01-.222.017l-.075.009a6.113 6.113 0 0 0-.22.028l-.067.01a6.13 6.13 0 0 0-.224.041l-.059.012a5.926 5.926 0 0 0-.229.054l-.051.013c-.077.02-.154.042-.23.065l-.048.015a5.87 5.87 0 0 0-.222.076l-.053.019c-.066.024-.131.05-.196.077l-.075.031-.12.054a6.024 6.024 0 0 0-3.443 4.457H27.96a6.023 6.023 0 0 0-3.443-4.457l-.12-.054-.075-.03a6.2 6.2 0 0 0-.196-.078l-.053-.02a5.941 5.941 0 0 0-.222-.075l-.048-.015a5.94 5.94 0 0 0-.51-.132l-.059-.012a5.897 5.897 0 0 0-.224-.04l-.067-.011a5.859 5.859 0 0 0-.22-.028l-.075-.009a6.027 6.027 0 0 0-.222-.017l-.073-.005a6.043 6.043 0 0 0-.592 0l-.073.005c-.075.005-.149.01-.222.017l-.075.009a6.113 6.113 0 0 0-.22.028l-.067.01c-.075.013-.15.026-.224.041l-.059.012a5.882 5.882 0 0 0-.229.054l-.051.013c-.077.02-.154.042-.23.065l-.048.015a5.936 5.936 0 0 0-.222.075l-.053.02c-.066.024-.131.05-.196.077l-.076.03-.119.055a6.023 6.023 0 0 0-3.443 4.457h-4.078V33.999h16.967c6.088 0 10.979-4.89 10.979-10.879v-.1h9.382c.499 0 .898.4.998.8L52.675 33h-7.364a1.321 1.321 0 0 1-1.297-1.297v-4.691c0-.599-.4-.998-.998-.998-.599 0-.998.399-.998.998v4.69c0 1.797 1.497 3.294 3.294 3.294h8.283l4.392 1.697v8.284z"/>
    </g>
</svg>
