<svg xmlns="http://www.w3.org/2000/svg" width="60" height="60" viewBox="0 0 60 60">
    <g fill="#F24841" fill-rule="nonzero">
        <path d="M56 0H31a4 4 0 0 0-4 4v25h2V4a2 2 0 0 1 2-2h25a2 2 0 0 1 2 2v35a2 2 0 0 1-2 2H41v2h15a4 4 0 0 0 4-4V4a4 4 0 0 0-4-4z"/>
        <path d="M44 33h-1a3 3 0 1 0 0 6h1a3 3 0 1 0 0-6zm0 4h-1a1 1 0 0 1 0-2h1a1 1 0 0 1 0 2zM35 25h-1a3 3 0 1 0 0 6h1a3 3 0 1 0 0-6zm0 4h-1a1 1 0 0 1 0-2h1a1 1 0 0 1 0 2zM44 25h-1a3 3 0 1 0 0 6h1a3 3 0 1 0 0-6zm0 4h-1a1 1 0 0 1 0-2h1a1 1 0 0 1 0 2zM35 17h-1a3 3 0 1 0 0 6h1a3 3 0 1 0 0-6zm0 4h-1a1 1 0 0 1 0-2h1a1 1 0 0 1 0 2zM44 17h-1a3 3 0 1 0 0 6h1a3 3 0 1 0 0-6zm0 4h-1a1 1 0 0 1 0-2h1a1 1 0 0 1 0 2zM53 17h-1a3 3 0 1 0 0 6h1a3 3 0 1 0 0-6zm0 4h-1a1 1 0 0 1 0-2h1a1 1 0 0 1 0 2zM55 4H32a1 1 0 0 0-1 1v9a1 1 0 0 0 1 1h23a1 1 0 0 0 1-1V5a1 1 0 0 0-1-1zm-1 9H33V6h21v7zM53 25h-1a3 3 0 0 0-3 3v8a3 3 0 0 0 3 3h1a3 3 0 0 0 3-3v-8a3 3 0 0 0-3-3zm1 11a1 1 0 0 1-1 1h-1a1 1 0 0 1-1-1v-8a1 1 0 0 1 1-1h1a1 1 0 0 1 1 1v8z"/>
        <path d="M50 9h2v2h-2zM46 9h2v2h-2zM42 9h2v2h-2zM39 43.5h-.025C38.703 36.527 32.978 31.011 26 31H16a11.8 11.8 0 0 0-1.209.065A7 7 0 0 0 9 28a1 1 0 0 0-1 1v4.768A13.019 13.019 0 0 0 3.643 40H1a1 1 0 0 0-1 1v8a1 1 0 0 0 1 1h3.478A12.936 12.936 0 0 0 9 54.943V59a1 1 0 0 0 1 1h6a1 1 0 0 0 1-1v-2h8v2a1 1 0 0 0 1 1h6a1 1 0 0 0 1-1v-4.057A13.047 13.047 0 0 0 39 44c0-.112-.014-.221-.017-.333 0-.057.017-.11.017-.167zM32 42v1.5a3.5 3.5 0 0 0 3.5 3.5c.385-.003.767-.07 1.13-.2a11.063 11.063 0 0 1-5.13 6.717 1 1 0 0 0-.5.865V58h-4v-2a1 1 0 0 0-1-1H16a1 1 0 0 0-1 1v2h-4v-3.618a1 1 0 0 0-.5-.865 10.972 10.972 0 0 1-4.49-4.935A1 1 0 0 0 5.1 48H2v-6h2.394a1 1 0 0 0 .968-.75 11.013 11.013 0 0 1 4.222-6.172 1 1 0 0 0 .416-.811V30.1a5 5 0 0 1 3.4 2.514 1 1 0 0 0 1.021.513A11.02 11.02 0 0 1 16 33h10c5.94.007 10.803 4.729 10.983 10.667A1.5 1.5 0 0 1 34 43.5V42h-2z"/>
        <path d="M12 38a3 3 0 1 0 0 6 3 3 0 0 0 0-6zm0 4a1 1 0 1 1 0-2 1 1 0 0 1 0 2zM17 36h8v2h-8zM20 14a5.006 5.006 0 0 0-5 5 5 5 0 1 0 5-5zm0 8a3 3 0 1 1 0-6 3 3 0 0 1 0 6zM8 8a5 5 0 1 0 5 5 5.006 5.006 0 0 0-5-5zm0 8a3 3 0 1 1 0-6 3 3 0 0 1 0 6zM20.984 4.833a1 1 0 0 0-.819-.819A3.868 3.868 0 0 1 16.986.836a1 1 0 0 0-1.972 0 3.868 3.868 0 0 1-3.179 3.178 1 1 0 0 0 0 1.972 3.868 3.868 0 0 1 3.179 3.178 1 1 0 0 0 1.972 0 3.868 3.868 0 0 1 3.179-3.178 1 1 0 0 0 .82-1.153zM16 6.428A5.87 5.87 0 0 0 14.572 5 5.87 5.87 0 0 0 16 3.572 5.87 5.87 0 0 0 17.428 5 5.87 5.87 0 0 0 16 6.428z"/>
    </g>
</svg>
